<svg xmlns="http://www.w3.org/2000/svg" width="860.48828125" height="703.3602294921875" viewBox="-350.1998291015625 -276.35052490234375 860.48828125 703.3602294921875"><title>Neo4j Graph Visualization</title><desc>Created using Neo4j (http://www.neo4j.com/)</desc><g class="layer relationships"><g class="relationship" transform="translate(210.08557993814867 307.2879476930828) rotate(248.23061348080194)"><path class="b-outline" fill="#A5ABB6" stroke="none" d="M 25 0.5 L 27.571276549721198 0.5 L 27.571276549721198 -0.5 L 25 -0.5 Z M 84.8408077997212 0.5 L 87.4120843494424 0.5 L 87.4120843494424 3.5 L 94.4120843494424 0 L 87.4120843494424 -3.5 L 87.4120843494424 -0.5 L 84.8408077997212 -0.5 Z"/><text text-anchor="middle" pointer-events="none" font-size="8px" fill="#000000" x="56.2060421747212" y="3" transform="rotate(180 56.2060421747212 0)" font-family="Helvetica Neue, Helvetica, Arial, sans-serif">LOCATED_AT</text></g><g class="relationship" transform="translate(210.08557993814867 307.2879476930828) rotate(325.3260759753431)"><path class="b-outline" fill="#A5ABB6" stroke="none" d="M 25 0.5 L 34.21811226633501 0.5 L 34.21811226633501 -0.5 L 25 -0.5 Z M 98.75326851633501 0.5 L 107.97138078267002 0.5 L 107.97138078267002 3.5 L 114.97138078267002 0 L 107.97138078267002 -3.5 L 107.97138078267002 -0.5 L 98.75326851633501 -0.5 Z"/><text text-anchor="middle" pointer-events="none" font-size="8px" fill="#000000" x="66.48569039133501" y="3" font-family="Helvetica Neue, Helvetica, Arial, sans-serif">OPERATED_BY</text></g><g class="relationship" transform="translate(-84.02092939776625 0.20834906198084666) rotate(477.478745964306)"><path class="b-outline" fill="#A5ABB6" stroke="none" d="M 25 0.5 L 41.17953153679636 0.5 L 41.17953153679636 -0.5 L 25 -0.5 Z M 89.26546903679636 0.5 L 105.44500057359272 0.5 L 105.44500057359272 3.5 L 112.44500057359272 0 L 105.44500057359272 -3.5 L 105.44500057359272 -0.5 L 89.26546903679636 -0.5 Z"/><text text-anchor="middle" pointer-events="none" font-size="8px" fill="#000000" x="65.22250028679636" y="3" transform="rotate(180 65.22250028679636 0)" font-family="Helvetica Neue, Helvetica, Arial, sans-serif">SHOPS_AT</text></g><g class="relationship" transform="translate(-84.02092939776625 0.20834906198084666) rotate(412.55309272716374)"><path class="b-outline" fill="#A5ABB6" stroke="none" d="M 25 0.5 L 34.905540370432064 0.5 L 34.905540370432064 -0.5 L 25 -0.5 Z M 123.74929037043206 0.5 L 133.65483074086413 0.5 L 133.65483074086413 3.5 L 140.65483074086413 0 L 133.65483074086413 -3.5 L 133.65483074086413 -0.5 L 123.74929037043206 -0.5 Z"/><text text-anchor="middle" pointer-events="none" font-size="8px" fill="#000000" x="79.32741537043206" y="3" font-family="Helvetica Neue, Helvetica, Arial, sans-serif">HAS_LOYALTY_CARD</text></g><g class="relationship" transform="translate(-126.20735329196344 268.2580871657779) rotate(261.7314510662338)"><path class="b-outline" fill="#A5ABB6" stroke="none" d="M 25 0.5 L 46.27992881874252 0.5 L 46.27992881874252 -0.5 L 25 -0.5 Z M 94.36586631874252 0.5 L 115.64579513748504 0.5 L 115.64579513748504 3.5 L 122.64579513748504 0 L 115.64579513748504 -3.5 L 115.64579513748504 -0.5 L 94.36586631874252 -0.5 Z"/><text text-anchor="middle" pointer-events="none" font-size="8px" fill="#000000" x="70.32289756874252" y="3" transform="rotate(180 70.32289756874252 0)" font-family="Helvetica Neue, Helvetica, Arial, sans-serif">SHOPS_AT</text></g><g class="relationship" transform="translate(297.2353765475274 -119.78376821843642) rotate(525.1272722769506)"><path class="b-outline" fill="#A5ABB6" stroke="none" d="M 25 0.5 L 60.537076764794975 0.5 L 60.537076764794975 -0.5 L 25 -0.5 Z M 108.62301426479497 0.5 L 144.16009102958995 0.5 L 144.16009102958995 3.5 L 151.16009102958995 0 L 144.16009102958995 -3.5 L 144.16009102958995 -0.5 L 108.62301426479497 -0.5 Z"/><text text-anchor="middle" pointer-events="none" font-size="8px" fill="#000000" x="84.58004551479497" y="3" transform="rotate(180 84.58004551479497 0)" font-family="Helvetica Neue, Helvetica, Arial, sans-serif">SHOPS_AT</text></g><g class="relationship" transform="translate(297.2353765475274 -119.78376821843642) rotate(412.599037241975)"><path class="b-outline" fill="#A5ABB6" stroke="none" d="M 25 0.5 L 38.207309431954116 0.5 L 38.207309431954116 -0.5 L 25 -0.5 Z M 127.05105943195412 0.5 L 140.25836886390823 0.5 L 140.25836886390823 3.5 L 147.25836886390823 0 L 140.25836886390823 -3.5 L 140.25836886390823 -0.5 L 127.05105943195412 -0.5 Z"/><text text-anchor="middle" pointer-events="none" font-size="8px" fill="#000000" x="82.62918443195412" y="3" font-family="Helvetica Neue, Helvetica, Arial, sans-serif">HAS_LOYALTY_CARD</text></g><g class="relationship" transform="translate(48.22243749518782 -1.5869547392875347) rotate(317.1789167876038)"><path class="b-outline" fill="#A5ABB6" stroke="none" d="M 25 0.5 L 26.142558452706297 0.5 L 26.142558452706297 -0.5 L 25 -0.5 Z M 74.2284959527063 0.5 L 75.3710544054126 0.5 L 75.3710544054126 3.5 L 82.3710544054126 0 L 75.3710544054126 -3.5 L 75.3710544054126 -0.5 L 74.2284959527063 -0.5 Z"/><text text-anchor="middle" pointer-events="none" font-size="8px" fill="#000000" x="50.1855272027063" y="3" font-family="Helvetica Neue, Helvetica, Arial, sans-serif">SHOPS_AT</text></g><g class="relationship" transform="translate(138.82160476188378 47.323137387464385) rotate(264.4497696165884)"><path class="b-outline" fill="#A5ABB6" stroke="none" d="M 25 0.5 L 33.68980626356019 0.5 L 33.68980626356019 -0.5 L 25 -0.5 Z M 81.7757437635602 0.5 L 90.46555002712039 0.5 L 90.46555002712039 3.5 L 97.46555002712039 0 L 90.46555002712039 -3.5 L 90.46555002712039 -0.5 L 81.7757437635602 -0.5 Z"/><text text-anchor="middle" pointer-events="none" font-size="8px" fill="#000000" x="57.73277501356019" y="3" transform="rotate(180 57.73277501356019 0)" font-family="Helvetica Neue, Helvetica, Arial, sans-serif">SHOPS_AT</text></g><g class="relationship" transform="translate(329.8692426550479 128.11260311657955) rotate(517.4049422991096)"><path class="b-outline" fill="#A5ABB6" stroke="none" d="M 25 0.5 L 61.312381043907195 0.5 L 61.312381043907195 -0.5 L 25 -0.5 Z M 109.3983185439072 0.5 L 145.7106995878144 0.5 L 145.7106995878144 3.5 L 152.7106995878144 0 L 145.7106995878144 -3.5 L 145.7106995878144 -0.5 L 109.3983185439072 -0.5 Z"/><text text-anchor="middle" pointer-events="none" font-size="8px" fill="#000000" x="85.3553497939072" y="3" transform="rotate(180 85.3553497939072 0)" font-family="Helvetica Neue, Helvetica, Arial, sans-serif">SHOPS_AT</text></g><g class="relationship" transform="translate(329.8692426550479 128.11260311657955) rotate(347.2024539978198)"><path class="b-outline" fill="#A5ABB6" stroke="none" d="M 25 0.5 L 29.716370153482274 0.5 L 29.716370153482274 -0.5 L 25 -0.5 Z M 118.56012015348227 0.5 L 123.27649030696455 0.5 L 123.27649030696455 3.5 L 130.27649030696455 0 L 123.27649030696455 -3.5 L 123.27649030696455 -0.5 L 118.56012015348227 -0.5 Z"/><text text-anchor="middle" pointer-events="none" font-size="8px" fill="#000000" x="74.13824515348227" y="3" font-family="Helvetica Neue, Helvetica, Arial, sans-serif">HAS_LOYALTY_CARD</text></g><g class="relationship" transform="translate(-147.4407386442396 122.14708768845607) rotate(242.43893363875532)"><path class="b-outline" fill="#A5ABB6" stroke="none" d="M 25 0.5 L 38.97537556161349 0.5 L 38.97537556161349 -0.5 L 25 -0.5 Z M 96.24490681161349 0.5 L 110.22028237322698 0.5 L 110.22028237322698 3.5 L 117.22028237322698 0 L 110.22028237322698 -3.5 L 110.22028237322698 -0.5 L 96.24490681161349 -0.5 Z"/><text text-anchor="middle" pointer-events="none" font-size="8px" fill="#000000" x="67.61014118661349" y="3" transform="rotate(180 67.61014118661349 0)" font-family="Helvetica Neue, Helvetica, Arial, sans-serif">LOCATED_AT</text></g><g class="relationship" transform="translate(126.9769369865258 -74.56826833392569) rotate(198.74692698997285)"><path class="b-outline" fill="#A5ABB6" stroke="none" d="M 25 0.5 L 36.151131393628106 0.5 L 36.151131393628106 -0.5 L 25 -0.5 Z M 93.4206626436281 0.5 L 104.57179403725621 0.5 L 104.57179403725621 3.5 L 111.57179403725621 0 L 104.57179403725621 -3.5 L 104.57179403725621 -0.5 L 93.4206626436281 -0.5 Z"/><text text-anchor="middle" pointer-events="none" font-size="8px" fill="#000000" x="64.7858970186281" y="3" transform="rotate(180 64.7858970186281 0)" font-family="Helvetica Neue, Helvetica, Arial, sans-serif">LOCATED_AT</text></g><g class="relationship" transform="translate(165.79901876930512 196.3918414110468) rotate(302.28168707018335)"><path class="b-outline" fill="#A5ABB6" stroke="none" d="M 25 0.5 L 42.42158938880837 0.5 L 42.42158938880837 -0.5 L 25 -0.5 Z M 99.69112063880837 0.5 L 117.11271002761674 0.5 L 117.11271002761674 3.5 L 124.11271002761674 0 L 117.11271002761674 -3.5 L 117.11271002761674 -0.5 L 99.69112063880837 -0.5 Z"/><text text-anchor="middle" pointer-events="none" font-size="8px" fill="#000000" x="71.05635501380837" y="3" font-family="Helvetica Neue, Helvetica, Arial, sans-serif">LOCATED_AT</text></g><g class="relationship" transform="translate(-311.5236173782563 1.556678493098961) rotate(396.31350435827073)"><path class="b-outline" fill="#A5ABB6" stroke="none" d="M 25 0.5 L 73.16468424550445 0.5 L 73.16468424550445 -0.5 L 25 -0.5 Z M 123.46546549550445 0.5 L 171.6301497410089 0.5 L 171.6301497410089 3.5 L 178.6301497410089 0 L 171.6301497410089 -3.5 L 171.6301497410089 -0.5 L 123.46546549550445 -0.5 Z"/><text text-anchor="middle" pointer-events="none" font-size="8px" fill="#000000" x="98.31507487050445" y="3" font-family="Helvetica Neue, Helvetica, Arial, sans-serif">WORKS_AT</text></g><g class="relationship" transform="translate(189.92971419034998 -244.26496534838492) rotate(470.3534596661208)"><path class="b-outline" fill="#A5ABB6" stroke="none" d="M 25 0.5 L 61.848257341822546 0.5 L 61.848257341822546 -0.5 L 25 -0.5 Z M 112.14903859182255 0.5 L 148.9972959336451 0.5 L 148.9972959336451 3.5 L 155.9972959336451 0 L 148.9972959336451 -3.5 L 148.9972959336451 -0.5 L 112.14903859182255 -0.5 Z"/><text text-anchor="middle" pointer-events="none" font-size="8px" fill="#000000" x="86.99864796682255" y="3" transform="rotate(180 86.99864796682255 0)" font-family="Helvetica Neue, Helvetica, Arial, sans-serif">WORKS_AT</text></g><g class="relationship" transform="translate(14.790516227040248 247.02539585178505) rotate(341.46355991498297)"><path class="b-outline" fill="#A5ABB6" stroke="none" d="M 25 0.5 L 50.985224327357244 0.5 L 50.985224327357244 -0.5 L 25 -0.5 Z M 101.28600557735724 0.5 L 127.27122990471449 0.5 L 127.27122990471449 3.5 L 134.2712299047145 0 L 127.27122990471449 -3.5 L 127.27122990471449 -0.5 L 101.28600557735724 -0.5 Z"/><text text-anchor="middle" pointer-events="none" font-size="8px" fill="#000000" x="76.13561495235724" y="3" font-family="Helvetica Neue, Helvetica, Arial, sans-serif">WORKS_AT</text></g><g class="relationship" transform="translate(-321.19982462849913 232.49375764699494) rotate(327.5821849976642)"><path class="b-outline" fill="#A5ABB6" stroke="none" d="M 25 0.5 L 74.26778990330122 0.5 L 74.26778990330122 -0.5 L 25 -0.5 Z M 124.56857115330122 0.5 L 173.83636105660244 0.5 L 173.83636105660244 3.5 L 180.83636105660244 0 L 173.83636105660244 -3.5 L 173.83636105660244 -0.5 L 124.56857115330122 -0.5 Z"/><text text-anchor="middle" pointer-events="none" font-size="8px" fill="#000000" x="99.41818052830122" y="3" font-family="Helvetica Neue, Helvetica, Arial, sans-serif">WORKS_AT</text></g><g class="relationship" transform="translate(171.53670787206605 398.0096924131611) rotate(268.3699029423499)"><path class="b-outline" fill="#A5ABB6" stroke="none" d="M 25 0.5 L 72.19934774718256 0.5 L 72.19934774718256 -0.5 L 25 -0.5 Z M 122.50012899718256 0.5 L 169.6994767443651 0.5 L 169.6994767443651 3.5 L 176.6994767443651 0 L 169.6994767443651 -3.5 L 169.6994767443651 -0.5 L 122.50012899718256 -0.5 Z"/><text text-anchor="middle" pointer-events="none" font-size="8px" fill="#000000" x="97.34973837218256" y="3" transform="rotate(180 97.34973837218256 0)" font-family="Helvetica Neue, Helvetica, Arial, sans-serif">WORKS_AT</text></g><g class="relationship" transform="translate(325.1984692317575 227.65748771271743) rotate(191.09747930505085)"><path class="b-outline" fill="#A5ABB6" stroke="none" d="M 25 0.5 L 52.56802700054996 0.5 L 52.56802700054996 -0.5 L 25 -0.5 Z M 102.86880825054996 0.5 L 130.43683525109992 0.5 L 130.43683525109992 3.5 L 137.43683525109992 0 L 130.43683525109992 -3.5 L 130.43683525109992 -0.5 L 102.86880825054996 -0.5 Z"/><text text-anchor="middle" pointer-events="none" font-size="8px" fill="#000000" x="77.71841762554996" y="3" transform="rotate(180 77.71841762554996 0)" font-family="Helvetica Neue, Helvetica, Arial, sans-serif">WORKS_AT</text></g><g class="relationship" transform="translate(-146.750751683364 -77.01645313206444) rotate(450.198496082429)"><path class="b-outline" fill="#A5ABB6" stroke="none" d="M 25 0.5 L 67.44760238532264 0.5 L 67.44760238532264 -0.5 L 25 -0.5 Z M 124.71713363532264 0.5 L 167.16473602064528 0.5 L 167.16473602064528 3.5 L 174.16473602064528 0 L 167.16473602064528 -3.5 L 167.16473602064528 -0.5 L 124.71713363532264 -0.5 Z"/><text text-anchor="middle" pointer-events="none" font-size="8px" fill="#000000" x="96.08236801032264" y="3" transform="rotate(180 96.08236801032264 0)" font-family="Helvetica Neue, Helvetica, Arial, sans-serif">LOCATED_AT</text></g><g class="relationship" transform="translate(-146.750751683364 -77.01645313206444) rotate(514.5055224157562)"><path class="b-outline" fill="#A5ABB6" stroke="none" d="M 25 0.5 L 55.5065067549541 0.5 L 55.5065067549541 -0.5 L 25 -0.5 Z M 120.0416630049541 0.5 L 150.5481697599082 0.5 L 150.5481697599082 3.5 L 157.5481697599082 0 L 150.5481697599082 -3.5 L 150.5481697599082 -0.5 L 120.0416630049541 -0.5 Z"/><text text-anchor="middle" pointer-events="none" font-size="8px" fill="#000000" x="87.7740848799541" y="3" transform="rotate(180 87.7740848799541 0)" font-family="Helvetica Neue, Helvetica, Arial, sans-serif">OPERATED_BY</text></g><g class="relationship" transform="translate(-224.59698994358376 281.70860459625885) rotate(295.80617027909096)"><path class="b-outline" fill="#A5ABB6" stroke="none" d="M 25 0.5 L 56.48374935985882 0.5 L 56.48374935985882 -0.5 L 25 -0.5 Z M 113.75328060985882 0.5 L 145.23702996971764 0.5 L 145.23702996971764 3.5 L 152.23702996971764 0 L 145.23702996971764 -3.5 L 145.23702996971764 -0.5 L 113.75328060985882 -0.5 Z"/><text text-anchor="middle" pointer-events="none" font-size="8px" fill="#000000" x="85.11851498485882" y="3" font-family="Helvetica Neue, Helvetica, Arial, sans-serif">LOCATED_AT</text></g><g class="relationship" transform="translate(-224.59698994358376 281.70860459625885) rotate(206.99681884647873)"><path class="b-outline" fill="#A5ABB6" stroke="none" d="M 25 0.5 L 27.55802391877853 0.5 L 27.55802391877853 -0.5 L 25 -0.5 Z M 73.85880516877853 0.5 L 76.41682908755706 0.5 L 76.41682908755706 3.5 L 83.41682908755706 0 L 76.41682908755706 -3.5 L 76.41682908755706 -0.5 L 73.85880516877853 -0.5 Z"/><text text-anchor="middle" pointer-events="none" font-size="8px" fill="#000000" x="50.70841454377853" y="3" transform="rotate(180 50.70841454377853 0)" font-family="Helvetica Neue, Helvetica, Arial, sans-serif">OPERAT…</text></g><g class="relationship" transform="translate(-321.06687162500845 100.6708846306371) rotate(367.0512274079999)"><path class="b-outline" fill="#A5ABB6" stroke="none" d="M 25 0.5 L 55.33988977820279 0.5 L 55.33988977820279 -0.5 L 25 -0.5 Z M 112.60942102820279 0.5 L 142.94931080640558 0.5 L 142.94931080640558 3.5 L 149.94931080640558 0 L 142.94931080640558 -3.5 L 142.94931080640558 -0.5 L 112.60942102820279 -0.5 Z"/><text text-anchor="middle" pointer-events="none" font-size="8px" fill="#000000" x="83.97465540320279" y="3" font-family="Helvetica Neue, Helvetica, Arial, sans-serif">LOCATED_AT</text></g><g class="relationship" transform="translate(-321.06687162500845 100.6708846306371) rotate(450.0577869622802)"><path class="b-outline" fill="#A5ABB6" stroke="none" d="M 25 0.5 L 30.14389190637607 0.5 L 30.14389190637607 -0.5 L 25 -0.5 Z M 94.67904815637607 0.5 L 99.82294006275214 0.5 L 99.82294006275214 3.5 L 106.82294006275214 0 L 99.82294006275214 -3.5 L 99.82294006275214 -0.5 L 94.67904815637607 -0.5 Z"/><text text-anchor="middle" pointer-events="none" font-size="8px" fill="#000000" x="62.41147003137607" y="3" transform="rotate(180 62.41147003137607 0)" font-family="Helvetica Neue, Helvetica, Arial, sans-serif">OPERATED_BY</text></g><g class="relationship" transform="translate(58.727874035866535 -247.35051560988714) rotate(428.44595848634475)"><path class="b-outline" fill="#A5ABB6" stroke="none" d="M 25 0.5 L 60.75177748994015 0.5 L 60.75177748994015 -0.5 L 25 -0.5 Z M 118.02130873994015 0.5 L 153.7730862298803 0.5 L 153.7730862298803 3.5 L 160.7730862298803 0 L 153.7730862298803 -3.5 L 153.7730862298803 -0.5 L 118.02130873994015 -0.5 Z"/><text text-anchor="middle" pointer-events="none" font-size="8px" fill="#000000" x="89.38654311494015" y="3" font-family="Helvetica Neue, Helvetica, Arial, sans-serif">LOCATED_AT</text></g><g class="relationship" transform="translate(58.727874035866535 -247.35051560988714) rotate(361.34720995859004)"><path class="b-outline" fill="#A5ABB6" stroke="none" d="M 25 0.5 L 29.851480616227917 0.5 L 29.851480616227917 -0.5 L 25 -0.5 Z M 94.38663686622792 0.5 L 99.23811748245583 0.5 L 99.23811748245583 3.5 L 106.23811748245583 0 L 99.23811748245583 -3.5 L 99.23811748245583 -0.5 L 94.38663686622792 -0.5 Z"/><text text-anchor="middle" pointer-events="none" font-size="8px" fill="#000000" x="62.11905874122792" y="3" font-family="Helvetica Neue, Helvetica, Arial, sans-serif">OPERATED_BY</text></g><g class="relationship" transform="translate(84.86652673614239 349.3743903578006) rotate(297.88022261178696)"><path class="b-outline" fill="#A5ABB6" stroke="none" d="M 25 0.5 L 54.40096189396161 0.5 L 54.40096189396161 -0.5 L 25 -0.5 Z M 111.67049314396161 0.5 L 141.07145503792322 0.5 L 141.07145503792322 3.5 L 148.07145503792322 0 L 141.07145503792322 -3.5 L 141.07145503792322 -0.5 L 111.67049314396161 -0.5 Z"/><text text-anchor="middle" pointer-events="none" font-size="8px" fill="#000000" x="83.03572751896161" y="3" font-family="Helvetica Neue, Helvetica, Arial, sans-serif">LOCATED_AT</text></g><g class="relationship" transform="translate(84.86652673614239 349.3743903578006) rotate(235.60145158642382)"><path class="b-outline" fill="#A5ABB6" stroke="none" d="M 25 0.5 L 26.25250718061733 0.5 L 26.25250718061733 -0.5 L 25 -0.5 Z M 90.78766343061733 0.5 L 92.04017061123466 0.5 L 92.04017061123466 3.5 L 99.04017061123466 0 L 92.04017061123466 -3.5 L 92.04017061123466 -0.5 L 90.78766343061733 -0.5 Z"/><text text-anchor="middle" pointer-events="none" font-size="8px" fill="#000000" x="58.52008530561733" y="3" transform="rotate(180 58.52008530561733 0)" font-family="Helvetica Neue, Helvetica, Arial, sans-serif">OPERATED_BY</text></g><g class="relationship" transform="translate(307.1916101898756 325.5633105330963) rotate(222.4137618138027)"><path class="b-outline" fill="#A5ABB6" stroke="none" d="M 25 0.5 L 63.621609285202396 0.5 L 63.621609285202396 -0.5 L 25 -0.5 Z M 120.8911405352024 0.5 L 159.5127498204048 0.5 L 159.5127498204048 3.5 L 166.5127498204048 0 L 159.5127498204048 -3.5 L 159.5127498204048 -0.5 L 120.8911405352024 -0.5 Z"/><text text-anchor="middle" pointer-events="none" font-size="8px" fill="#000000" x="92.2563749102024" y="3" transform="rotate(180 92.2563749102024 0)" font-family="Helvetica Neue, Helvetica, Arial, sans-serif">LOCATED_AT</text></g><g class="relationship" transform="translate(307.1916101898756 325.5633105330963) rotate(511.89559292173874)"><path class="b-outline" fill="#A5ABB6" stroke="none" d="M 25 0.5 L 41.126392331672704 0.5 L 41.126392331672704 -0.5 L 25 -0.5 Z M 105.6615485816727 0.5 L 121.78794091334541 0.5 L 121.78794091334541 3.5 L 128.7879409133454 0 L 121.78794091334541 -3.5 L 121.78794091334541 -0.5 L 105.6615485816727 -0.5 Z"/><text text-anchor="middle" pointer-events="none" font-size="8px" fill="#000000" x="73.3939704566727" y="3" transform="rotate(180 73.3939704566727 0)" font-family="Helvetica Neue, Helvetica, Arial, sans-serif">OPERATED_BY</text></g></g><g class="layer nodes"><g class="node" aria-label="graph-node0" transform="translate(210.08557993814867,307.2879476930828)"><circle class="b-outline" cx="0" cy="0" r="25" fill="#4C8EDA" stroke="#2870c2" stroke-width="2px"/><text class="caption" text-anchor="middle" pointer-events="none" x="0" y="5" font-size="10px" fill="#FFFFFF" font-family="Helvetica Neue, Helvetica, Arial, sans-serif"> 7</text></g><g class="node" aria-label="graph-node25" transform="translate(165.79901876930512,196.3918414110468)"><circle class="b-outline" cx="0" cy="0" r="25" fill="#8DCC93" stroke="#5db665" stroke-width="2px"/><text class="caption" text-anchor="middle" pointer-events="none" x="0" y="0" font-size="10px" fill="#2A2C34" font-family="Helvetica Neue, Helvetica, Arial, sans-serif"> Albert</text><text class="caption" text-anchor="middle" pointer-events="none" x="0" y="10" font-size="10px" fill="#2A2C34" font-family="Helvetica Neue, Helvetica, Arial, sans-serif"> Brno</text></g><g class="node" aria-label="graph-node31" transform="translate(325.1984692317575,227.65748771271743)"><circle class="b-outline" cx="0" cy="0" r="25" fill="#F16667" stroke="#eb2728" stroke-width="2px"/><text class="caption" text-anchor="middle" pointer-events="none" x="0" y="5" font-size="10px" fill="#FFFFFF" font-family="Helvetica Neue, Helvetica, Arial, sans-serif"> Kira</text></g><g class="node" aria-label="graph-node1" transform="translate(-84.02092939776625,0.20834906198084666)"><circle class="b-outline" cx="0" cy="0" r="25" fill="#D9C8AE" stroke="#c0a378" stroke-width="2px"/><text class="caption" text-anchor="middle" pointer-events="none" x="0" y="5" font-size="10px" fill="#2A2C34" font-family="Helvetica Neue, Helvetica, Arial, sans-serif"> Velky</text></g><g class="node" aria-label="graph-node13" transform="translate(-147.4407386442396,122.14708768845607)"><circle class="b-outline" cx="0" cy="0" r="25" fill="#8DCC93" stroke="#5db665" stroke-width="2px"/><text class="caption" text-anchor="middle" pointer-events="none" x="0" y="-5" font-size="10px" fill="#2A2C34" font-family="Helvetica Neue, Helvetica, Arial, sans-serif"> Albert</text><text class="caption" text-anchor="middle" pointer-events="none" x="0" y="5" font-size="10px" fill="#2A2C34" font-family="Helvetica Neue, Helvetica, Arial, sans-serif"> Liberec,</text><text class="caption" text-anchor="middle" pointer-events="none" x="0" y="15" font-size="10px" fill="#2A2C34" font-family="Helvetica Neue, Helvetica, Arial, sans-serif"> Žiž</text></g><g class="node" aria-label="graph-node7" transform="translate(16.701516791278365,131.72455255599658)"><circle class="b-outline" cx="0" cy="0" r="25" fill="#ECB5C9" stroke="#da7298" stroke-width="2px"/><text class="caption" text-anchor="middle" pointer-events="none" x="0" y="5" font-size="10px" fill="#2A2C34" font-family="Helvetica Neue, Helvetica, Arial, sans-serif"> 1</text></g><g class="node" aria-label="graph-node2" transform="translate(-126.20735329196344,268.2580871657779)"><circle class="b-outline" cx="0" cy="0" r="25" fill="#D9C8AE" stroke="#c0a378" stroke-width="2px"/><text class="caption" text-anchor="middle" pointer-events="none" x="0" y="5" font-size="10px" fill="#2A2C34" font-family="Helvetica Neue, Helvetica, Arial, sans-serif"> Mrkvicko…</text></g><g class="node" aria-label="graph-node3" transform="translate(297.2353765475274,-119.78376821843642)"><circle class="b-outline" cx="0" cy="0" r="25" fill="#D9C8AE" stroke="#c0a378" stroke-width="2px"/><text class="caption" text-anchor="middle" pointer-events="none" x="0" y="5" font-size="10px" fill="#2A2C34" font-family="Helvetica Neue, Helvetica, Arial, sans-serif"> Cibulkova</text></g><g class="node" aria-label="graph-node24" transform="translate(126.9769369865258,-74.56826833392569)"><circle class="b-outline" cx="0" cy="0" r="25" fill="#8DCC93" stroke="#5db665" stroke-width="2px"/><text class="caption" text-anchor="middle" pointer-events="none" x="0" y="0" font-size="10px" fill="#2A2C34" font-family="Helvetica Neue, Helvetica, Arial, sans-serif"> Albert</text><text class="caption" text-anchor="middle" pointer-events="none" x="0" y="10" font-size="10px" fill="#2A2C34" font-family="Helvetica Neue, Helvetica, Arial, sans-serif"> Olomo…</text></g><g class="node" aria-label="graph-node8" transform="translate(401.863247410794,17.059040442720033)"><circle class="b-outline" cx="0" cy="0" r="25" fill="#ECB5C9" stroke="#da7298" stroke-width="2px"/><text class="caption" text-anchor="middle" pointer-events="none" x="0" y="5" font-size="10px" fill="#2A2C34" font-family="Helvetica Neue, Helvetica, Arial, sans-serif"> 2</text></g><g class="node" aria-label="graph-node4" transform="translate(48.22243749518782,-1.5869547392875347)"><circle class="b-outline" cx="0" cy="0" r="25" fill="#D9C8AE" stroke="#c0a378" stroke-width="2px"/><text class="caption" text-anchor="middle" pointer-events="none" x="0" y="5" font-size="10px" fill="#2A2C34" font-family="Helvetica Neue, Helvetica, Arial, sans-serif"> Mrkvicko…</text></g><g class="node" aria-label="graph-node5" transform="translate(138.82160476188378,47.323137387464385)"><circle class="b-outline" cx="0" cy="0" r="25" fill="#D9C8AE" stroke="#c0a378" stroke-width="2px"/><text class="caption" text-anchor="middle" pointer-events="none" x="0" y="5" font-size="10px" fill="#2A2C34" font-family="Helvetica Neue, Helvetica, Arial, sans-serif"> Nebe</text></g><g class="node" aria-label="graph-node6" transform="translate(329.8692426550479,128.11260311657955)"><circle class="b-outline" cx="0" cy="0" r="25" fill="#D9C8AE" stroke="#c0a378" stroke-width="2px"/><text class="caption" text-anchor="middle" pointer-events="none" x="0" y="5" font-size="10px" fill="#2A2C34" font-family="Helvetica Neue, Helvetica, Arial, sans-serif"> Mala</text></g><g class="node" aria-label="graph-node9" transform="translate(481.28848519612154,93.71781527981021)"><circle class="b-outline" cx="0" cy="0" r="25" fill="#ECB5C9" stroke="#da7298" stroke-width="2px"/><text class="caption" text-anchor="middle" pointer-events="none" x="0" y="5" font-size="10px" fill="#2A2C34" font-family="Helvetica Neue, Helvetica, Arial, sans-serif"> 3</text></g><g class="node" aria-label="graph-node10" transform="translate(-213.24517228573484,-3.933780136295448)"><circle class="b-outline" cx="0" cy="0" r="25" fill="#FFC454" stroke="#d7a013" stroke-width="2px"/><text class="caption" text-anchor="middle" pointer-events="none" x="0" y="5" font-size="10px" fill="#2A2C34" font-family="Helvetica Neue, Helvetica, Arial, sans-serif"> Prokopo…</text></g><g class="node" aria-label="graph-node11" transform="translate(-2.3493639560568624,-118.46089654258137)"><circle class="b-outline" cx="0" cy="0" r="25" fill="#FFC454" stroke="#d7a013" stroke-width="2px"/><text class="caption" text-anchor="middle" pointer-events="none" x="0" y="5" font-size="10px" fill="#2A2C34" font-family="Helvetica Neue, Helvetica, Arial, sans-serif"> Polska, 1</text></g><g class="node" aria-label="graph-node12" transform="translate(245.4374568356446,70.32709822670553)"><circle class="b-outline" cx="0" cy="0" r="25" fill="#FFC454" stroke="#d7a013" stroke-width="2px"/><text class="caption" text-anchor="middle" pointer-events="none" x="0" y="0" font-size="10px" fill="#2A2C34" font-family="Helvetica Neue, Helvetica, Arial, sans-serif"> Nadrazni,</text><text class="caption" text-anchor="middle" pointer-events="none" x="0" y="10" font-size="10px" fill="#2A2C34" font-family="Helvetica Neue, Helvetica, Arial, sans-serif"> 2</text></g><g class="node" aria-label="graph-node26" transform="translate(-311.5236173782563,1.556678493098961)"><circle class="b-outline" cx="0" cy="0" r="25" fill="#F16667" stroke="#eb2728" stroke-width="2px"/><text class="caption" text-anchor="middle" pointer-events="none" x="0" y="5" font-size="10px" fill="#FFFFFF" font-family="Helvetica Neue, Helvetica, Arial, sans-serif"> Marie</text></g><g class="node" aria-label="graph-node27" transform="translate(189.92971419034998,-244.26496534838492)"><circle class="b-outline" cx="0" cy="0" r="25" fill="#F16667" stroke="#eb2728" stroke-width="2px"/><text class="caption" text-anchor="middle" pointer-events="none" x="0" y="5" font-size="10px" fill="#FFFFFF" font-family="Helvetica Neue, Helvetica, Arial, sans-serif"> Janko</text></g><g class="node" aria-label="graph-node28" transform="translate(14.790516227040248,247.02539585178505)"><circle class="b-outline" cx="0" cy="0" r="25" fill="#F16667" stroke="#eb2728" stroke-width="2px"/><text class="caption" text-anchor="middle" pointer-events="none" x="0" y="5" font-size="10px" fill="#FFFFFF" font-family="Helvetica Neue, Helvetica, Arial, sans-serif"> Peter</text></g><g class="node" aria-label="graph-node29" transform="translate(-321.19982462849913,232.49375764699494)"><circle class="b-outline" cx="0" cy="0" r="25" fill="#F16667" stroke="#eb2728" stroke-width="2px"/><text class="caption" text-anchor="middle" pointer-events="none" x="0" y="5" font-size="10px" fill="#FFFFFF" font-family="Helvetica Neue, Helvetica, Arial, sans-serif"> Anna</text></g><g class="node" aria-label="graph-node30" transform="translate(171.53670787206605,398.0096924131611)"><circle class="b-outline" cx="0" cy="0" r="25" fill="#F16667" stroke="#eb2728" stroke-width="2px"/><text class="caption" text-anchor="middle" pointer-events="none" x="0" y="5" font-size="10px" fill="#FFFFFF" font-family="Helvetica Neue, Helvetica, Arial, sans-serif"> Honza</text></g><g class="node" aria-label="graph-node32" transform="translate(-146.750751683364,-77.01645313206444)"><circle class="b-outline" cx="0" cy="0" r="25" fill="#4C8EDA" stroke="#2870c2" stroke-width="2px"/><text class="caption" text-anchor="middle" pointer-events="none" x="0" y="5" font-size="10px" fill="#FFFFFF" font-family="Helvetica Neue, Helvetica, Arial, sans-serif"> 1</text></g><g class="node" aria-label="graph-node33" transform="translate(-224.59698994358376,281.70860459625885)"><circle class="b-outline" cx="0" cy="0" r="25" fill="#4C8EDA" stroke="#2870c2" stroke-width="2px"/><text class="caption" text-anchor="middle" pointer-events="none" x="0" y="5" font-size="10px" fill="#FFFFFF" font-family="Helvetica Neue, Helvetica, Arial, sans-serif"> 2</text></g><g class="node" aria-label="graph-node34" transform="translate(-321.06687162500845,100.6708846306371)"><circle class="b-outline" cx="0" cy="0" r="25" fill="#4C8EDA" stroke="#2870c2" stroke-width="2px"/><text class="caption" text-anchor="middle" pointer-events="none" x="0" y="5" font-size="10px" fill="#FFFFFF" font-family="Helvetica Neue, Helvetica, Arial, sans-serif"> 3</text></g><g class="node" aria-label="graph-node35" transform="translate(58.727874035866535,-247.35051560988714)"><circle class="b-outline" cx="0" cy="0" r="25" fill="#4C8EDA" stroke="#2870c2" stroke-width="2px"/><text class="caption" text-anchor="middle" pointer-events="none" x="0" y="5" font-size="10px" fill="#FFFFFF" font-family="Helvetica Neue, Helvetica, Arial, sans-serif"> 4</text></g><g class="node" aria-label="graph-node36" transform="translate(84.86652673614239,349.3743903578006)"><circle class="b-outline" cx="0" cy="0" r="25" fill="#4C8EDA" stroke="#2870c2" stroke-width="2px"/><text class="caption" text-anchor="middle" pointer-events="none" x="0" y="5" font-size="10px" fill="#FFFFFF" font-family="Helvetica Neue, Helvetica, Arial, sans-serif"> 5</text></g><g class="node" aria-label="graph-node37" transform="translate(307.1916101898756,325.5633105330963)"><circle class="b-outline" cx="0" cy="0" r="25" fill="#4C8EDA" stroke="#2870c2" stroke-width="2px"/><text class="caption" text-anchor="middle" pointer-events="none" x="0" y="5" font-size="10px" fill="#FFFFFF" font-family="Helvetica Neue, Helvetica, Arial, sans-serif"> 6</text></g></g></svg>