<svg xmlns="http://www.w3.org/2000/svg" width="867.928955078125" height="782.2474365234375" viewBox="-445.4794616699219 -412.82763671875 867.928955078125 782.2474365234375"><title>Neo4j Graph Visualization</title><desc>Created using Neo4j (http://www.neo4j.com/)</desc><g class="layer relationships"><g class="relationship" transform="translate(328.31950600305083 -359.28952598200357) rotate(483.8847096910341)"><path class="b-outline" fill="#A5ABB6" stroke="none" d="M 25 0.5 L 50.63035614483259 0.5 L 50.63035614483259 -0.5 L 25 -0.5 Z M 100.93113739483259 0.5 L 126.56149353966518 0.5 L 126.56149353966518 3.5 L 133.56149353966518 0 L 126.56149353966518 -3.5 L 126.56149353966518 -0.5 L 100.93113739483259 -0.5 Z"/><text text-anchor="middle" pointer-events="none" font-size="8px" fill="#000000" x="75.78074676983259" y="3" transform="rotate(180 75.78074676983259 0)" font-family="Helvetica Neue, Helvetica, Arial, sans-serif">WORKS_AT</text></g><g class="relationship" transform="translate(-304.7162159263157 230.12225055806812) rotate(283.3759115442107)"><path class="b-outline" fill="#A5ABB6" stroke="none" d="M 25 0.5 L 51.07709018710048 0.5 L 51.07709018710048 -0.5 L 25 -0.5 Z M 108.34662143710048 0.5 L 134.42371162420096 0.5 L 134.42371162420096 3.5 L 141.42371162420096 0 L 134.42371162420096 -3.5 L 134.42371162420096 -0.5 L 108.34662143710048 -0.5 Z"/><text text-anchor="middle" pointer-events="none" font-size="8px" fill="#000000" x="79.71185581210048" y="3" font-family="Helvetica Neue, Helvetica, Arial, sans-serif">LOCATED_AT</text></g><g class="relationship" transform="translate(-304.7162159263157 230.12225055806812) rotate(215.67122895090932)"><path class="b-outline" fill="#A5ABB6" stroke="none" d="M 25 0.5 L 28.729058673437365 0.5 L 28.729058673437365 -0.5 L 25 -0.5 Z M 93.26421492343736 0.5 L 96.99327359687473 0.5 L 96.99327359687473 3.5 L 103.99327359687473 0 L 96.99327359687473 -3.5 L 96.99327359687473 -0.5 L 93.26421492343736 -0.5 Z"/><text text-anchor="middle" pointer-events="none" font-size="8px" fill="#000000" x="60.996636798437365" y="3" transform="rotate(180 60.996636798437365 0)" font-family="Helvetica Neue, Helvetica, Arial, sans-serif">OPERATED_BY</text></g><g class="relationship" transform="translate(-191.86186140868537 234.687614650885) rotate(245.93258261942378)"><path class="b-outline" fill="#A5ABB6" stroke="none" d="M 25 0.5 L 59.02758950809098 0.5 L 59.02758950809098 -0.5 L 25 -0.5 Z M 116.29712075809098 0.5 L 150.32471026618197 0.5 L 150.32471026618197 3.5 L 157.32471026618197 0 L 150.32471026618197 -3.5 L 150.32471026618197 -0.5 L 116.29712075809098 -0.5 Z"/><text text-anchor="middle" pointer-events="none" font-size="8px" fill="#000000" x="87.66235513309098" y="3" transform="rotate(180 87.66235513309098 0)" font-family="Helvetica Neue, Helvetica, Arial, sans-serif">LOCATED_AT</text></g><g class="relationship" transform="translate(-191.86186140868537 234.687614650885) rotate(370.08261999204814)"><path class="b-outline" fill="#A5ABB6" stroke="none" d="M 25 0.5 L 52.896954438195905 0.5 L 52.896954438195905 -0.5 L 25 -0.5 Z M 117.4321106881959 0.5 L 145.3290651263918 0.5 L 145.3290651263918 3.5 L 152.3290651263918 0 L 145.3290651263918 -3.5 L 145.3290651263918 -0.5 L 117.4321106881959 -0.5 Z"/><text text-anchor="middle" pointer-events="none" font-size="8px" fill="#000000" x="85.1645325631959" y="3" font-family="Helvetica Neue, Helvetica, Arial, sans-serif">OPERATED_BY</text></g><g class="relationship" transform="translate(-131.2009189150728 155.97797637081536) rotate(213.02540009961405)"><path class="b-outline" fill="#A5ABB6" stroke="none" d="M 25 0.5 L 48.381897941310655 0.5 L 48.381897941310655 -0.5 L 25 -0.5 Z M 105.65142919131065 0.5 L 129.0333271326213 0.5 L 129.0333271326213 3.5 L 136.0333271326213 0 L 129.0333271326213 -3.5 L 129.0333271326213 -0.5 L 105.65142919131065 -0.5 Z"/><text text-anchor="middle" pointer-events="none" font-size="8px" fill="#000000" x="77.01666356631065" y="3" transform="rotate(180 77.01666356631065 0)" font-family="Helvetica Neue, Helvetica, Arial, sans-serif">LOCATED_AT</text></g><g class="relationship" transform="translate(-131.2009189150728 155.97797637081536) rotate(403.9306586246238)"><path class="b-outline" fill="#A5ABB6" stroke="none" d="M 25 0.5 L 43.33036634574606 0.5 L 43.33036634574606 -0.5 L 25 -0.5 Z M 107.86552259574606 0.5 L 126.19588894149211 0.5 L 126.19588894149211 3.5 L 133.19588894149211 0 L 126.19588894149211 -3.5 L 126.19588894149211 -0.5 L 107.86552259574606 -0.5 Z"/><text text-anchor="middle" pointer-events="none" font-size="8px" fill="#000000" x="75.59794447074606" y="3" font-family="Helvetica Neue, Helvetica, Arial, sans-serif">OPERATED_BY</text></g><g class="relationship" transform="translate(292.92266441201633 98.86263055123077) rotate(504.0173296107617)"><path class="b-outline" fill="#A5ABB6" stroke="none" d="M 25 0.5 L 48.63135599593369 0.5 L 48.63135599593369 -0.5 L 25 -0.5 Z M 105.90088724593369 0.5 L 129.53224324186738 0.5 L 129.53224324186738 3.5 L 136.53224324186738 0 L 129.53224324186738 -3.5 L 129.53224324186738 -0.5 L 105.90088724593369 -0.5 Z"/><text text-anchor="middle" pointer-events="none" font-size="8px" fill="#000000" x="77.26612162093369" y="3" transform="rotate(180 77.26612162093369 0)" font-family="Helvetica Neue, Helvetica, Arial, sans-serif">LOCATED_AT</text></g><g class="relationship" transform="translate(292.92266441201633 98.86263055123077) rotate(269.42654810015176)"><path class="b-outline" fill="#A5ABB6" stroke="none" d="M 25 0.5 L 47.780356832237146 0.5 L 47.780356832237146 -0.5 L 25 -0.5 Z M 112.31551308223715 0.5 L 135.0958699144743 0.5 L 135.0958699144743 3.5 L 142.0958699144743 0 L 135.0958699144743 -3.5 L 135.0958699144743 -0.5 L 112.31551308223715 -0.5 Z"/><text text-anchor="middle" pointer-events="none" font-size="8px" fill="#000000" x="80.04793495723715" y="3" transform="rotate(180 80.04793495723715 0)" font-family="Helvetica Neue, Helvetica, Arial, sans-serif">OPERATED_BY</text></g><g class="relationship" transform="translate(87.95439743621877 -112.65963038938897) rotate(322.88337171869097)"><path class="b-outline" fill="#A5ABB6" stroke="none" d="M 25 0.5 L 63.15094580030981 0.5 L 63.15094580030981 -0.5 L 25 -0.5 Z M 120.42047705030981 0.5 L 158.57142285061963 0.5 L 158.57142285061963 3.5 L 165.57142285061963 0 L 158.57142285061963 -3.5 L 158.57142285061963 -0.5 L 120.42047705030981 -0.5 Z"/><text text-anchor="middle" pointer-events="none" font-size="8px" fill="#000000" x="91.78571142530981" y="3" font-family="Helvetica Neue, Helvetica, Arial, sans-serif">LOCATED_AT</text></g><g class="relationship" transform="translate(87.95439743621877 -112.65963038938897) rotate(511.14261079753965)"><path class="b-outline" fill="#A5ABB6" stroke="none" d="M 25 0.5 L 70.15000485532317 0.5 L 70.15000485532317 -0.5 L 25 -0.5 Z M 134.68516110532317 0.5 L 179.83516596064635 0.5 L 179.83516596064635 3.5 L 186.83516596064635 0 L 179.83516596064635 -3.5 L 179.83516596064635 -0.5 L 134.68516110532317 -0.5 Z"/><text text-anchor="middle" pointer-events="none" font-size="8px" fill="#000000" x="102.41758298032317" y="3" transform="rotate(180 102.41758298032317 0)" font-family="Helvetica Neue, Helvetica, Arial, sans-serif">OPERATED_BY</text></g><g class="relationship" transform="translate(375.500305646912 -124.52605696135248) rotate(217.25870165633876)"><path class="b-outline" fill="#A5ABB6" stroke="none" d="M 25 0.5 L 53.039789946824456 0.5 L 53.039789946824456 -0.5 L 25 -0.5 Z M 110.30932119682446 0.5 L 138.3491111436489 0.5 L 138.3491111436489 3.5 L 145.3491111436489 0 L 138.3491111436489 -3.5 L 138.3491111436489 -0.5 L 110.30932119682446 -0.5 Z"/><text text-anchor="middle" pointer-events="none" font-size="8px" fill="#000000" x="81.67455557182446" y="3" transform="rotate(180 81.67455557182446 0)" font-family="Helvetica Neue, Helvetica, Arial, sans-serif">LOCATED_AT</text></g><g class="relationship" transform="translate(375.500305646912 -124.52605696135248) rotate(277.4378284246634)"><path class="b-outline" fill="#A5ABB6" stroke="none" d="M 25 0.5 L 33.5607565406994 0.5 L 33.5607565406994 -0.5 L 25 -0.5 Z M 98.0959127906994 0.5 L 106.6566693313988 0.5 L 106.6566693313988 3.5 L 113.6566693313988 0 L 106.6566693313988 -3.5 L 106.6566693313988 -0.5 L 98.0959127906994 -0.5 Z"/><text text-anchor="middle" pointer-events="none" font-size="8px" fill="#000000" x="65.8283346656994" y="3" font-family="Helvetica Neue, Helvetica, Arial, sans-serif">OPERATED_BY</text></g><g class="relationship" transform="translate(195.20177240227193 -383.8276242607545) rotate(434.02202933975354)"><path class="b-outline" fill="#A5ABB6" stroke="none" d="M 25 0.5 L 49.08790168694577 0.5 L 49.08790168694577 -0.5 L 25 -0.5 Z M 106.35743293694577 0.5 L 130.44533462389154 0.5 L 130.44533462389154 3.5 L 137.44533462389154 0 L 130.44533462389154 -3.5 L 130.44533462389154 -0.5 L 106.35743293694577 -0.5 Z"/><text text-anchor="middle" pointer-events="none" font-size="8px" fill="#000000" x="77.72266731194577" y="3" font-family="Helvetica Neue, Helvetica, Arial, sans-serif">LOCATED_AT</text></g><g class="relationship" transform="translate(195.20177240227193 -383.8276242607545) rotate(370.44430670282657)"><path class="b-outline" fill="#A5ABB6" stroke="none" d="M 25 0.5 L 31.912642889240146 0.5 L 31.912642889240146 -0.5 L 25 -0.5 Z M 96.44779913924015 0.5 L 103.36044202848029 0.5 L 103.36044202848029 3.5 L 110.36044202848029 0 L 103.36044202848029 -3.5 L 103.36044202848029 -0.5 L 96.44779913924015 -0.5 Z"/><text text-anchor="middle" pointer-events="none" font-size="8px" fill="#000000" x="64.18022101424015" y="3" font-family="Helvetica Neue, Helvetica, Arial, sans-serif">OPERATED_BY</text></g><g class="relationship" transform="translate(-169.58481793880426 -95.62097866502688) rotate(480.5325688939373)"><path class="b-outline" fill="#A5ABB6" stroke="none" d="M 25 0.5 L 67.56114668285353 0.5 L 67.56114668285353 -0.5 L 25 -0.5 Z M 115.64708418285353 0.5 L 158.20823086570707 0.5 L 158.20823086570707 3.5 L 165.20823086570707 0 L 158.20823086570707 -3.5 L 158.20823086570707 -0.5 L 115.64708418285353 -0.5 Z"/><text text-anchor="middle" pointer-events="none" font-size="8px" fill="#000000" x="91.60411543285353" y="3" transform="rotate(180 91.60411543285353 0)" font-family="Helvetica Neue, Helvetica, Arial, sans-serif">SHOPS_AT</text></g><g class="relationship" transform="translate(-169.58481793880426 -95.62097866502688) rotate(250.9632666820167)"><path class="b-outline" fill="#A5ABB6" stroke="none" d="M 25 0.5 L 28.841015721486272 0.5 L 28.841015721486272 -0.5 L 25 -0.5 Z M 117.68476572148627 0.5 L 121.52578144297254 0.5 L 121.52578144297254 3.5 L 128.52578144297254 0 L 121.52578144297254 -3.5 L 121.52578144297254 -0.5 L 117.68476572148627 -0.5 Z"/><text text-anchor="middle" pointer-events="none" font-size="8px" fill="#000000" x="73.26289072148627" y="3" transform="rotate(180 73.26289072148627 0)" font-family="Helvetica Neue, Helvetica, Arial, sans-serif">HAS_LOYALTY_CARD</text></g><g class="relationship" transform="translate(-169.58481793880426 -95.62097866502688) rotate(213.0396560151815)"><path class="b-outline" fill="#A5ABB6" stroke="none" d="M 25 0.5 L 28.74695911137229 0.5 L 28.74695911137229 -0.5 L 25 -0.5 Z M 117.59070911137229 0.5 L 121.33766822274458 0.5 L 121.33766822274458 3.5 L 128.33766822274458 0 L 121.33766822274458 -3.5 L 121.33766822274458 -0.5 L 117.59070911137229 -0.5 Z"/><text text-anchor="middle" pointer-events="none" font-size="8px" fill="#000000" x="73.16883411137229" y="3" transform="rotate(180 73.16883411137229 0)" font-family="Helvetica Neue, Helvetica, Arial, sans-serif">HAS_LOYALTY_CARD</text></g><g class="relationship" transform="translate(-374.3594413454372 -34.82826958460894) rotate(403.61602177112894)"><path class="b-outline" fill="#A5ABB6" stroke="none" d="M 25 0.5 L 47.14393916750798 0.5 L 47.14393916750798 -0.5 L 25 -0.5 Z M 95.22987666750798 0.5 L 117.37381583501596 0.5 L 117.37381583501596 3.5 L 124.37381583501596 0 L 117.37381583501596 -3.5 L 117.37381583501596 -0.5 L 95.22987666750798 -0.5 Z"/><text text-anchor="middle" pointer-events="none" font-size="8px" fill="#000000" x="71.18690791750798" y="3" font-family="Helvetica Neue, Helvetica, Arial, sans-serif">SHOPS_AT</text></g><g class="relationship" transform="translate(128.34204868792716 340.4198132876252) rotate(283.004692866487)"><path class="b-outline" fill="#A5ABB6" stroke="none" d="M 25 0.5 L 47.71243044396566 0.5 L 47.71243044396566 -0.5 L 25 -0.5 Z M 95.79836794396566 0.5 L 118.51079838793132 0.5 L 118.51079838793132 3.5 L 125.51079838793132 0 L 118.51079838793132 -3.5 L 118.51079838793132 -0.5 L 95.79836794396566 -0.5 Z"/><text text-anchor="middle" pointer-events="none" font-size="8px" fill="#000000" x="71.75539919396566" y="3" font-family="Helvetica Neue, Helvetica, Arial, sans-serif">SHOPS_AT</text></g><g class="relationship" transform="translate(65.22902833840449 91.7126276113957) rotate(406.46033602654865)"><path class="b-outline" fill="#A5ABB6" stroke="none" d="M 25 0.5 L 42.85092741804624 0.5 L 42.85092741804624 -0.5 L 25 -0.5 Z M 90.93686491804624 0.5 L 108.78779233609248 0.5 L 108.78779233609248 3.5 L 115.78779233609248 0 L 108.78779233609248 -3.5 L 108.78779233609248 -0.5 L 90.93686491804624 -0.5 Z"/><text text-anchor="middle" pointer-events="none" font-size="8px" fill="#000000" x="66.89389616804624" y="3" font-family="Helvetica Neue, Helvetica, Arial, sans-serif">SHOPS_AT</text></g><g class="relationship" transform="translate(228.96405585109804 328.9490351944093) rotate(243.7195966709712)"><path class="b-outline" fill="#A5ABB6" stroke="none" d="M 25 0.5 L 47.838443099114244 0.5 L 47.838443099114244 -0.5 L 25 -0.5 Z M 95.92438059911424 0.5 L 118.76282369822849 0.5 L 118.76282369822849 3.5 L 125.76282369822849 0 L 118.76282369822849 -3.5 L 118.76282369822849 -0.5 L 95.92438059911424 -0.5 Z"/><text text-anchor="middle" pointer-events="none" font-size="8px" fill="#000000" x="71.88141184911424" y="3" transform="rotate(180 71.88141184911424 0)" font-family="Helvetica Neue, Helvetica, Arial, sans-serif">SHOPS_AT</text></g><g class="relationship" transform="translate(77.7104928218697 -308.04393817562345) rotate(386.3619057865184)"><path class="b-outline" fill="#A5ABB6" stroke="none" d="M 25 0.5 L 62.97373858865947 0.5 L 62.97373858865947 -0.5 L 25 -0.5 Z M 111.05967608865947 0.5 L 149.03341467731894 0.5 L 149.03341467731894 3.5 L 156.03341467731894 0 L 149.03341467731894 -3.5 L 149.03341467731894 -0.5 L 111.05967608865947 -0.5 Z"/><text text-anchor="middle" pointer-events="none" font-size="8px" fill="#000000" x="87.01670733865947" y="3" font-family="Helvetica Neue, Helvetica, Arial, sans-serif">SHOPS_AT</text></g><g class="relationship" transform="translate(77.7104928218697 -308.04393817562345) rotate(507.9427919899157)"><path class="b-outline" fill="#A5ABB6" stroke="none" d="M 25 0.5 L 39.27553683002148 0.5 L 39.27553683002148 -0.5 L 25 -0.5 Z M 128.11928683002148 0.5 L 142.39482366004296 0.5 L 142.39482366004296 3.5 L 149.39482366004296 0 L 142.39482366004296 -3.5 L 142.39482366004296 -0.5 L 128.11928683002148 -0.5 Z"/><text text-anchor="middle" pointer-events="none" font-size="8px" fill="#000000" x="83.69741183002148" y="3" transform="rotate(180 83.69741183002148 0)" font-family="Helvetica Neue, Helvetica, Arial, sans-serif">HAS_LOYALTY_CARD</text></g><g class="relationship" transform="translate(-266.21593657951513 68.21307762153089) rotate(184.83383363493084)"><path class="b-outline" fill="#A5ABB6" stroke="none" d="M 25 0.5 L 43.265152276470545 0.5 L 43.265152276470545 -0.5 L 25 -0.5 Z M 100.53468352647054 0.5 L 118.79983580294109 0.5 L 118.79983580294109 3.5 L 125.79983580294109 0 L 118.79983580294109 -3.5 L 118.79983580294109 -0.5 L 100.53468352647054 -0.5 Z"/><text text-anchor="middle" pointer-events="none" font-size="8px" fill="#000000" x="71.89991790147054" y="3" transform="rotate(180 71.89991790147054 0)" font-family="Helvetica Neue, Helvetica, Arial, sans-serif">LOCATED_AT</text></g><g class="relationship" transform="translate(162.21162313601653 193.76937053998859) rotate(382.8070956208864)"><path class="b-outline" fill="#A5ABB6" stroke="none" d="M 25 0.5 L 43.00891550337049 0.5 L 43.00891550337049 -0.5 L 25 -0.5 Z M 100.27844675337049 0.5 L 118.28736225674098 0.5 L 118.28736225674098 3.5 L 125.28736225674098 0 L 118.28736225674098 -3.5 L 118.28736225674098 -0.5 L 100.27844675337049 -0.5 Z"/><text text-anchor="middle" pointer-events="none" font-size="8px" fill="#000000" x="71.64368112837049" y="3" font-family="Helvetica Neue, Helvetica, Arial, sans-serif">LOCATED_AT</text></g><g class="relationship" transform="translate(239.91773338565716 -227.6579422658152) rotate(533.3425808395441)"><path class="b-outline" fill="#A5ABB6" stroke="none" d="M 25 0.5 L 37.72874446686987 0.5 L 37.72874446686987 -0.5 L 25 -0.5 Z M 94.99827571686987 0.5 L 107.72702018373974 0.5 L 107.72702018373974 3.5 L 114.72702018373974 0 L 107.72702018373974 -3.5 L 107.72702018373974 -0.5 L 94.99827571686987 -0.5 Z"/><text text-anchor="middle" pointer-events="none" font-size="8px" fill="#000000" x="66.36351009186987" y="3" transform="rotate(180 66.36351009186987 0)" font-family="Helvetica Neue, Helvetica, Arial, sans-serif">LOCATED_AT</text></g><g class="relationship" transform="translate(-409.5073135329521 154.90197074182046) rotate(328.82676137438034)"><path class="b-outline" fill="#A5ABB6" stroke="none" d="M 25 0.5 L 55.086373850994875 0.5 L 55.086373850994875 -0.5 L 25 -0.5 Z M 105.38715510099487 0.5 L 135.47352895198975 0.5 L 135.47352895198975 3.5 L 142.47352895198975 0 L 135.47352895198975 -3.5 L 135.47352895198975 -0.5 L 105.38715510099487 -0.5 Z"/><text text-anchor="middle" pointer-events="none" font-size="8px" fill="#000000" x="80.23676447599487" y="3" font-family="Helvetica Neue, Helvetica, Arial, sans-serif">WORKS_AT</text></g><g class="relationship" transform="translate(-17.27140782155993 265.7322736897907) rotate(338.1519076164502)"><path class="b-outline" fill="#A5ABB6" stroke="none" d="M 25 0.5 L 68.03572243094273 0.5 L 68.03572243094273 -0.5 L 25 -0.5 Z M 118.33650368094273 0.5 L 161.37222611188545 0.5 L 161.37222611188545 3.5 L 168.37222611188545 0 L 161.37222611188545 -3.5 L 161.37222611188545 -0.5 L 118.33650368094273 -0.5 Z"/><text text-anchor="middle" pointer-events="none" font-size="8px" fill="#000000" x="93.18611305594273" y="3" font-family="Helvetica Neue, Helvetica, Arial, sans-serif">WORKS_AT</text></g><g class="relationship" transform="translate(291.25029264045054 -68.22487022346088) rotate(252.15303368512235)"><path class="b-outline" fill="#A5ABB6" stroke="none" d="M 25 0.5 L 55.09615572246051 0.5 L 55.09615572246051 -0.5 L 25 -0.5 Z M 105.39693697246051 0.5 L 135.49309269492102 0.5 L 135.49309269492102 3.5 L 142.49309269492102 0 L 135.49309269492102 -3.5 L 135.49309269492102 -0.5 L 105.39693697246051 -0.5 Z"/><text text-anchor="middle" pointer-events="none" font-size="8px" fill="#000000" x="80.24654634746051" y="3" transform="rotate(180 80.24654634746051 0)" font-family="Helvetica Neue, Helvetica, Arial, sans-serif">WORKS_AT</text></g><g class="relationship" transform="translate(-97.57586169140808 -10.421376855742217) rotate(515.0010336604996)"><path class="b-outline" fill="#A5ABB6" stroke="none" d="M 25 0.5 L 64.38569416096449 0.5 L 64.38569416096449 -0.5 L 25 -0.5 Z M 114.68647541096449 0.5 L 154.07216957192898 0.5 L 154.07216957192898 3.5 L 161.07216957192898 0 L 154.07216957192898 -3.5 L 154.07216957192898 -0.5 L 114.68647541096449 -0.5 Z"/><text text-anchor="middle" pointer-events="none" font-size="8px" fill="#000000" x="89.53608478596449" y="3" transform="rotate(180 89.53608478596449 0)" font-family="Helvetica Neue, Helvetica, Arial, sans-serif">WORKS_AT</text></g><g class="relationship" transform="translate(393.44945309812437 -262.0160568008008) rotate(527.385887061537)"><path class="b-outline" fill="#A5ABB6" stroke="none" d="M 25 0.5 L 50.01419637618304 0.5 L 50.01419637618304 -0.5 L 25 -0.5 Z M 100.31497762618304 0.5 L 125.32917400236607 0.5 L 125.32917400236607 3.5 L 132.32917400236607 0 L 125.32917400236607 -3.5 L 125.32917400236607 -0.5 L 100.31497762618304 -0.5 Z"/><text text-anchor="middle" pointer-events="none" font-size="8px" fill="#000000" x="75.16458700118304" y="3" transform="rotate(180 75.16458700118304 0)" font-family="Helvetica Neue, Helvetica, Arial, sans-serif">WORKS_AT</text></g></g><g class="layer nodes"><g class="node" aria-label="graph-node0" transform="translate(328.31950600305083,-359.28952598200357)"><circle class="b-outline" cx="0" cy="0" r="25" fill="#F16667" stroke="#eb2728" stroke-width="2px"/><text class="caption" text-anchor="middle" pointer-events="none" x="0" y="5" font-size="10px" fill="#FFFFFF" font-family="Helvetica Neue, Helvetica, Arial, sans-serif"> Kira</text></g><g class="node" aria-label="graph-node1" transform="translate(-304.7162159263157,230.12225055806812)"><circle class="b-outline" cx="0" cy="0" r="25" fill="#4C8EDA" stroke="#2870c2" stroke-width="2px"/><text class="caption" text-anchor="middle" pointer-events="none" x="0" y="5" font-size="10px" fill="#FFFFFF" font-family="Helvetica Neue, Helvetica, Arial, sans-serif"> 1</text></g><g class="node" aria-label="graph-node2" transform="translate(-191.86186140868537,234.687614650885)"><circle class="b-outline" cx="0" cy="0" r="25" fill="#4C8EDA" stroke="#2870c2" stroke-width="2px"/><text class="caption" text-anchor="middle" pointer-events="none" x="0" y="5" font-size="10px" fill="#FFFFFF" font-family="Helvetica Neue, Helvetica, Arial, sans-serif"> 2</text></g><g class="node" aria-label="graph-node3" transform="translate(-131.2009189150728,155.97797637081536)"><circle class="b-outline" cx="0" cy="0" r="25" fill="#4C8EDA" stroke="#2870c2" stroke-width="2px"/><text class="caption" text-anchor="middle" pointer-events="none" x="0" y="5" font-size="10px" fill="#FFFFFF" font-family="Helvetica Neue, Helvetica, Arial, sans-serif"> 3</text></g><g class="node" aria-label="graph-node4" transform="translate(292.92266441201633,98.86263055123077)"><circle class="b-outline" cx="0" cy="0" r="25" fill="#4C8EDA" stroke="#2870c2" stroke-width="2px"/><text class="caption" text-anchor="middle" pointer-events="none" x="0" y="5" font-size="10px" fill="#FFFFFF" font-family="Helvetica Neue, Helvetica, Arial, sans-serif"> 4</text></g><g class="node" aria-label="graph-node5" transform="translate(87.95439743621877,-112.65963038938897)"><circle class="b-outline" cx="0" cy="0" r="25" fill="#4C8EDA" stroke="#2870c2" stroke-width="2px"/><text class="caption" text-anchor="middle" pointer-events="none" x="0" y="5" font-size="10px" fill="#FFFFFF" font-family="Helvetica Neue, Helvetica, Arial, sans-serif"> 5</text></g><g class="node" aria-label="graph-node6" transform="translate(375.500305646912,-124.52605696135248)"><circle class="b-outline" cx="0" cy="0" r="25" fill="#4C8EDA" stroke="#2870c2" stroke-width="2px"/><text class="caption" text-anchor="middle" pointer-events="none" x="0" y="5" font-size="10px" fill="#FFFFFF" font-family="Helvetica Neue, Helvetica, Arial, sans-serif"> 6</text></g><g class="node" aria-label="graph-node7" transform="translate(195.20177240227193,-383.8276242607545)"><circle class="b-outline" cx="0" cy="0" r="25" fill="#4C8EDA" stroke="#2870c2" stroke-width="2px"/><text class="caption" text-anchor="middle" pointer-events="none" x="0" y="5" font-size="10px" fill="#FFFFFF" font-family="Helvetica Neue, Helvetica, Arial, sans-serif"> 7</text></g><g class="node" aria-label="graph-node8" transform="translate(-169.58481793880426,-95.62097866502688)"><circle class="b-outline" cx="0" cy="0" r="25" fill="#D9C8AE" stroke="#c0a378" stroke-width="2px"/><text class="caption" text-anchor="middle" pointer-events="none" x="0" y="5" font-size="10px" fill="#2A2C34" font-family="Helvetica Neue, Helvetica, Arial, sans-serif"> Velky</text></g><g class="node" aria-label="graph-node9" transform="translate(-374.3594413454372,-34.82826958460894)"><circle class="b-outline" cx="0" cy="0" r="25" fill="#D9C8AE" stroke="#c0a378" stroke-width="2px"/><text class="caption" text-anchor="middle" pointer-events="none" x="0" y="5" font-size="10px" fill="#2A2C34" font-family="Helvetica Neue, Helvetica, Arial, sans-serif"> Mrkvicko…</text></g><g class="node" aria-label="graph-node10" transform="translate(128.34204868792716,340.4198132876252)"><circle class="b-outline" cx="0" cy="0" r="25" fill="#D9C8AE" stroke="#c0a378" stroke-width="2px"/><text class="caption" text-anchor="middle" pointer-events="none" x="0" y="5" font-size="10px" fill="#2A2C34" font-family="Helvetica Neue, Helvetica, Arial, sans-serif"> Cibulkova</text></g><g class="node" aria-label="graph-node11" transform="translate(65.22902833840449,91.7126276113957)"><circle class="b-outline" cx="0" cy="0" r="25" fill="#D9C8AE" stroke="#c0a378" stroke-width="2px"/><text class="caption" text-anchor="middle" pointer-events="none" x="0" y="5" font-size="10px" fill="#2A2C34" font-family="Helvetica Neue, Helvetica, Arial, sans-serif"> Mrkvicko…</text></g><g class="node" aria-label="graph-node12" transform="translate(228.96405585109804,328.9490351944093)"><circle class="b-outline" cx="0" cy="0" r="25" fill="#D9C8AE" stroke="#c0a378" stroke-width="2px"/><text class="caption" text-anchor="middle" pointer-events="none" x="0" y="5" font-size="10px" fill="#2A2C34" font-family="Helvetica Neue, Helvetica, Arial, sans-serif"> Nebe</text></g><g class="node" aria-label="graph-node13" transform="translate(77.7104928218697,-308.04393817562345)"><circle class="b-outline" cx="0" cy="0" r="25" fill="#D9C8AE" stroke="#c0a378" stroke-width="2px"/><text class="caption" text-anchor="middle" pointer-events="none" x="0" y="5" font-size="10px" fill="#2A2C34" font-family="Helvetica Neue, Helvetica, Arial, sans-serif"> Mala</text></g><g class="node" aria-label="graph-node24" transform="translate(-219.66097852744187,-240.75038198625722)"><circle class="b-outline" cx="0" cy="0" r="25" fill="#ECB5C9" stroke="#da7298" stroke-width="2px"/><text class="caption" text-anchor="middle" pointer-events="none" x="0" y="5" font-size="10px" fill="#2A2C34" font-family="Helvetica Neue, Helvetica, Arial, sans-serif"> 1</text></g><g class="node" aria-label="graph-node25" transform="translate(-298.12677427807915,-179.2236458261913)"><circle class="b-outline" cx="0" cy="0" r="25" fill="#ECB5C9" stroke="#da7298" stroke-width="2px"/><text class="caption" text-anchor="middle" pointer-events="none" x="0" y="5" font-size="10px" fill="#2A2C34" font-family="Helvetica Neue, Helvetica, Arial, sans-serif"> 2</text></g><g class="node" aria-label="graph-node26" transform="translate(-70.0923580476684,-215.48113898364483)"><circle class="b-outline" cx="0" cy="0" r="25" fill="#ECB5C9" stroke="#da7298" stroke-width="2px"/><text class="caption" text-anchor="middle" pointer-events="none" x="0" y="5" font-size="10px" fill="#2A2C34" font-family="Helvetica Neue, Helvetica, Arial, sans-serif"> 3</text></g><g class="node" aria-label="graph-node27" transform="translate(-416.4794185424753,55.50573853889283)"><circle class="b-outline" cx="0" cy="0" r="25" fill="#FFC454" stroke="#d7a013" stroke-width="2px"/><text class="caption" text-anchor="middle" pointer-events="none" x="0" y="5" font-size="10px" fill="#2A2C34" font-family="Helvetica Neue, Helvetica, Arial, sans-serif"> Prokopo…</text></g><g class="node" aria-label="graph-node28" transform="translate(300.7487910941253,252.02522302053902)"><circle class="b-outline" cx="0" cy="0" r="25" fill="#FFC454" stroke="#d7a013" stroke-width="2px"/><text class="caption" text-anchor="middle" pointer-events="none" x="0" y="5" font-size="10px" fill="#2A2C34" font-family="Helvetica Neue, Helvetica, Arial, sans-serif"> Polska, 1</text></g><g class="node" aria-label="graph-node29" transform="translate(101.1328810224924,-211.4590248957633)"><circle class="b-outline" cx="0" cy="0" r="25" fill="#FFC454" stroke="#d7a013" stroke-width="2px"/><text class="caption" text-anchor="middle" pointer-events="none" x="0" y="0" font-size="10px" fill="#2A2C34" font-family="Helvetica Neue, Helvetica, Arial, sans-serif"> Nadrazni,</text><text class="caption" text-anchor="middle" pointer-events="none" x="0" y="10" font-size="10px" fill="#2A2C34" font-family="Helvetica Neue, Helvetica, Arial, sans-serif"> 2</text></g><g class="node" aria-label="graph-node30" transform="translate(-266.21593657951513,68.21307762153089)"><circle class="b-outline" cx="0" cy="0" r="25" fill="#8DCC93" stroke="#5db665" stroke-width="2px"/><text class="caption" text-anchor="middle" pointer-events="none" x="0" y="-5" font-size="10px" fill="#2A2C34" font-family="Helvetica Neue, Helvetica, Arial, sans-serif"> Albert</text><text class="caption" text-anchor="middle" pointer-events="none" x="0" y="5" font-size="10px" fill="#2A2C34" font-family="Helvetica Neue, Helvetica, Arial, sans-serif"> Liberec,</text><text class="caption" text-anchor="middle" pointer-events="none" x="0" y="15" font-size="10px" fill="#2A2C34" font-family="Helvetica Neue, Helvetica, Arial, sans-serif"> Žiž</text></g><g class="node" aria-label="graph-node31" transform="translate(162.21162313601653,193.76937053998859)"><circle class="b-outline" cx="0" cy="0" r="25" fill="#8DCC93" stroke="#5db665" stroke-width="2px"/><text class="caption" text-anchor="middle" pointer-events="none" x="0" y="0" font-size="10px" fill="#2A2C34" font-family="Helvetica Neue, Helvetica, Arial, sans-serif"> Albert</text><text class="caption" text-anchor="middle" pointer-events="none" x="0" y="10" font-size="10px" fill="#2A2C34" font-family="Helvetica Neue, Helvetica, Arial, sans-serif"> Olomo…</text></g><g class="node" aria-label="graph-node32" transform="translate(239.91773338565716,-227.6579422658152)"><circle class="b-outline" cx="0" cy="0" r="25" fill="#8DCC93" stroke="#5db665" stroke-width="2px"/><text class="caption" text-anchor="middle" pointer-events="none" x="0" y="0" font-size="10px" fill="#2A2C34" font-family="Helvetica Neue, Helvetica, Arial, sans-serif"> Albert</text><text class="caption" text-anchor="middle" pointer-events="none" x="0" y="10" font-size="10px" fill="#2A2C34" font-family="Helvetica Neue, Helvetica, Arial, sans-serif"> Brno</text></g><g class="node" aria-label="graph-node33" transform="translate(-409.5073135329521,154.90197074182046)"><circle class="b-outline" cx="0" cy="0" r="25" fill="#F16667" stroke="#eb2728" stroke-width="2px"/><text class="caption" text-anchor="middle" pointer-events="none" x="0" y="5" font-size="10px" fill="#FFFFFF" font-family="Helvetica Neue, Helvetica, Arial, sans-serif"> Marie</text></g><g class="node" aria-label="graph-node34" transform="translate(-17.27140782155993,265.7322736897907)"><circle class="b-outline" cx="0" cy="0" r="25" fill="#F16667" stroke="#eb2728" stroke-width="2px"/><text class="caption" text-anchor="middle" pointer-events="none" x="0" y="5" font-size="10px" fill="#FFFFFF" font-family="Helvetica Neue, Helvetica, Arial, sans-serif"> Janko</text></g><g class="node" aria-label="graph-node35" transform="translate(291.25029264045054,-68.22487022346088)"><circle class="b-outline" cx="0" cy="0" r="25" fill="#F16667" stroke="#eb2728" stroke-width="2px"/><text class="caption" text-anchor="middle" pointer-events="none" x="0" y="5" font-size="10px" fill="#FFFFFF" font-family="Helvetica Neue, Helvetica, Arial, sans-serif"> Peter</text></g><g class="node" aria-label="graph-node36" transform="translate(-97.57586169140808,-10.421376855742217)"><circle class="b-outline" cx="0" cy="0" r="25" fill="#F16667" stroke="#eb2728" stroke-width="2px"/><text class="caption" text-anchor="middle" pointer-events="none" x="0" y="5" font-size="10px" fill="#FFFFFF" font-family="Helvetica Neue, Helvetica, Arial, sans-serif"> Anna</text></g><g class="node" aria-label="graph-node37" transform="translate(393.44945309812437,-262.0160568008008)"><circle class="b-outline" cx="0" cy="0" r="25" fill="#F16667" stroke="#eb2728" stroke-width="2px"/><text class="caption" text-anchor="middle" pointer-events="none" x="0" y="5" font-size="10px" fill="#FFFFFF" font-family="Helvetica Neue, Helvetica, Arial, sans-serif"> Honza</text></g></g></svg>