<svg xmlns="http://www.w3.org/2000/svg" width="683.4613037109375" height="955.9815063476562" viewBox="-314.8437194824219 -470.7572326660156 683.4613037109375 955.9815063476562"><title>Neo4j Graph Visualization</title><desc>Created using Neo4j (http://www.neo4j.com/)</desc><g class="layer relationships"><g class="relationship" transform="translate(-128.30942724372753 -5.723263053362827) rotate(361.35268310728935)"><path class="b-outline" fill="#A5ABB6" stroke="none" d="M 25 0.5 L 52.207310742933956 0.5 L 52.207310742933956 -0.5 L 25 -0.5 Z M 102.50809199293396 0.5 L 129.7154027358679 0.5 L 129.7154027358679 3.5 L 136.7154027358679 0 L 129.7154027358679 -3.5 L 129.7154027358679 -0.5 L 102.50809199293396 -0.5 Z"/><text text-anchor="middle" pointer-events="none" font-size="8px" fill="#000000" x="77.35770136793396" y="3" font-family="Helvetica Neue, Helvetica, Arial, sans-serif">WORKS_AT</text></g><g class="relationship" transform="translate(234.66741126891137 288.0229711433969) rotate(532.1283654576596)"><path class="b-outline" fill="#A5ABB6" stroke="none" d="M 25 0.5 L 53.114615527672 0.5 L 53.114615527672 -0.5 L 25 -0.5 Z M 103.415396777672 0.5 L 131.530012305344 0.5 L 131.530012305344 3.5 L 138.530012305344 0 L 131.530012305344 -3.5 L 131.530012305344 -0.5 L 103.415396777672 -0.5 Z"/><text text-anchor="middle" pointer-events="none" font-size="8px" fill="#000000" x="78.265006152672" y="3" transform="rotate(180 78.265006152672 0)" font-family="Helvetica Neue, Helvetica, Arial, sans-serif">WORKS_AT</text></g><g class="relationship" transform="translate(230.55435625714063 -74.94748308044657) rotate(259.90423411187595)"><path class="b-outline" fill="#A5ABB6" stroke="none" d="M 25 0.5 L 72.93204112290186 0.5 L 72.93204112290186 -0.5 L 25 -0.5 Z M 123.23282237290186 0.5 L 171.16486349580373 0.5 L 171.16486349580373 3.5 L 178.16486349580373 0 L 171.16486349580373 -3.5 L 171.16486349580373 -0.5 L 123.23282237290186 -0.5 Z"/><text text-anchor="middle" pointer-events="none" font-size="8px" fill="#000000" x="98.08243174790186" y="3" transform="rotate(180 98.08243174790186 0)" font-family="Helvetica Neue, Helvetica, Arial, sans-serif">WORKS_AT</text></g><g class="relationship" transform="translate(163.8568811526058 -148.42094568995478) rotate(491.69033300952685)"><path class="b-outline" fill="#A5ABB6" stroke="none" d="M 25 0.5 L 69.45148413344727 0.5 L 69.45148413344727 -0.5 L 25 -0.5 Z M 119.75226538344727 0.5 L 164.20374951689453 0.5 L 164.20374951689453 3.5 L 171.20374951689453 0 L 164.20374951689453 -3.5 L 164.20374951689453 -0.5 L 119.75226538344727 -0.5 Z"/><text text-anchor="middle" pointer-events="none" font-size="8px" fill="#000000" x="94.60187475844727" y="3" transform="rotate(180 94.60187475844727 0)" font-family="Helvetica Neue, Helvetica, Arial, sans-serif">WORKS_AT</text></g><g class="relationship" transform="translate(334.08803356626595 -197.20362839678785) rotate(209.19879827833256)"><path class="b-outline" fill="#A5ABB6" stroke="none" d="M 25 0.5 L 51.05066501225765 0.5 L 51.05066501225765 -0.5 L 25 -0.5 Z M 101.35144626225765 0.5 L 127.4021112745153 0.5 L 127.4021112745153 3.5 L 134.4021112745153 0 L 127.4021112745153 -3.5 L 127.4021112745153 -0.5 L 101.35144626225765 -0.5 Z"/><text text-anchor="middle" pointer-events="none" font-size="8px" fill="#000000" x="76.20105563725765" y="3" transform="rotate(180 76.20105563725765 0)" font-family="Helvetica Neue, Helvetica, Arial, sans-serif">WORKS_AT</text></g><g class="relationship" transform="translate(339.6175749903268 -399.99722694349714) rotate(499.16620365496374)"><path class="b-outline" fill="#A5ABB6" stroke="none" d="M 25 0.5 L 66.95823889388497 0.5 L 66.95823889388497 -0.5 L 25 -0.5 Z M 117.25902014388497 0.5 L 159.21725903776994 0.5 L 159.21725903776994 3.5 L 166.21725903776994 0 L 159.21725903776994 -3.5 L 159.21725903776994 -0.5 L 117.25902014388497 -0.5 Z"/><text text-anchor="middle" pointer-events="none" font-size="8px" fill="#000000" x="92.10862951888497" y="3" transform="rotate(180 92.10862951888497 0)" font-family="Helvetica Neue, Helvetica, Arial, sans-serif">WORKS_AT</text></g><g class="relationship" transform="translate(-13.652456931352226 136.43986268918601) rotate(288.7690748456932)"><path class="b-outline" fill="#A5ABB6" stroke="none" d="M 25 0.5 L 40.92301217208062 0.5 L 40.92301217208062 -0.5 L 25 -0.5 Z M 98.19254342208062 0.5 L 114.11555559416124 0.5 L 114.11555559416124 3.5 L 121.11555559416124 0 L 114.11555559416124 -3.5 L 114.11555559416124 -0.5 L 98.19254342208062 -0.5 Z"/><text text-anchor="middle" pointer-events="none" font-size="8px" fill="#000000" x="69.55777779708062" y="3" font-family="Helvetica Neue, Helvetica, Arial, sans-serif">LOCATED_AT</text></g><g class="relationship" transform="translate(-13.652456931352226 136.43986268918601) rotate(231.11323539179256)"><path class="b-outline" fill="#A5ABB6" stroke="none" d="M 25 0.5 L 55.551334431634004 0.5 L 55.551334431634004 -0.5 L 25 -0.5 Z M 120.086490681634 0.5 L 150.637825113268 0.5 L 150.637825113268 3.5 L 157.637825113268 0 L 150.637825113268 -3.5 L 150.637825113268 -0.5 L 120.086490681634 -0.5 Z"/><text text-anchor="middle" pointer-events="none" font-size="8px" fill="#000000" x="87.818912556634" y="3" transform="rotate(180 87.818912556634 0)" font-family="Helvetica Neue, Helvetica, Arial, sans-serif">OPERATED_BY</text></g><g class="relationship" transform="translate(104.73114528702182 193.24555511965067) rotate(249.91164924241377)"><path class="b-outline" fill="#A5ABB6" stroke="none" d="M 25 0.5 L 71.76149140392074 0.5 L 71.76149140392074 -0.5 L 25 -0.5 Z M 129.03102265392073 0.5 L 175.7925140578415 0.5 L 175.7925140578415 3.5 L 182.7925140578415 0 L 175.7925140578415 -3.5 L 175.7925140578415 -0.5 L 129.03102265392073 -0.5 Z"/><text text-anchor="middle" pointer-events="none" font-size="8px" fill="#000000" x="100.39625702892074" y="3" transform="rotate(180 100.39625702892074 0)" font-family="Helvetica Neue, Helvetica, Arial, sans-serif">LOCATED_AT</text></g><g class="relationship" transform="translate(104.73114528702182 193.24555511965067) rotate(396.10755921122274)"><path class="b-outline" fill="#A5ABB6" stroke="none" d="M 25 0.5 L 44.647270947566525 0.5 L 44.647270947566525 -0.5 L 25 -0.5 Z M 109.18242719756653 0.5 L 128.82969814513305 0.5 L 128.82969814513305 3.5 L 135.82969814513305 0 L 128.82969814513305 -3.5 L 128.82969814513305 -0.5 L 109.18242719756653 -0.5 Z"/><text text-anchor="middle" pointer-events="none" font-size="8px" fill="#000000" x="76.91484907256653" y="3" font-family="Helvetica Neue, Helvetica, Arial, sans-serif">OPERATED_BY</text></g><g class="relationship" transform="translate(208.74006586188437 118.10480017252787) rotate(214.3835157146362)"><path class="b-outline" fill="#A5ABB6" stroke="none" d="M 25 0.5 L 74.1200840106832 0.5 L 74.1200840106832 -0.5 L 25 -0.5 Z M 131.3896152606832 0.5 L 180.5096992713664 0.5 L 180.5096992713664 3.5 L 187.5096992713664 0 L 180.5096992713664 -3.5 L 180.5096992713664 -0.5 L 131.3896152606832 -0.5 Z"/><text text-anchor="middle" pointer-events="none" font-size="8px" fill="#000000" x="102.7548496356832" y="3" transform="rotate(180 102.7548496356832 0)" font-family="Helvetica Neue, Helvetica, Arial, sans-serif">LOCATED_AT</text></g><g class="relationship" transform="translate(208.74006586188437 118.10480017252787) rotate(441.3243135084315)"><path class="b-outline" fill="#A5ABB6" stroke="none" d="M 25 0.5 L 50.17486201073963 0.5 L 50.17486201073963 -0.5 L 25 -0.5 Z M 114.71001826073963 0.5 L 139.88488027147926 0.5 L 139.88488027147926 3.5 L 146.88488027147926 0 L 139.88488027147926 -3.5 L 139.88488027147926 -0.5 L 114.71001826073963 -0.5 Z"/><text text-anchor="middle" pointer-events="none" font-size="8px" fill="#000000" x="82.44244013573963" y="3" font-family="Helvetica Neue, Helvetica, Arial, sans-serif">OPERATED_BY</text></g><g class="relationship" transform="translate(112.71525794851607 94.92676041602888) rotate(460.52514728575807)"><path class="b-outline" fill="#A5ABB6" stroke="none" d="M 25 0.5 L 77.45526827748716 0.5 L 77.45526827748716 -0.5 L 25 -0.5 Z M 134.72479952748716 0.5 L 187.18006780497433 0.5 L 187.18006780497433 3.5 L 194.18006780497433 0 L 187.18006780497433 -3.5 L 187.18006780497433 -0.5 L 134.72479952748716 -0.5 Z"/><text text-anchor="middle" pointer-events="none" font-size="8px" fill="#000000" x="106.09003390248716" y="3" transform="rotate(180 106.09003390248716 0)" font-family="Helvetica Neue, Helvetica, Arial, sans-serif">LOCATED_AT</text></g><g class="relationship" transform="translate(112.71525794851607 94.92676041602888) rotate(304.74843848017053)"><path class="b-outline" fill="#A5ABB6" stroke="none" d="M 25 0.5 L 67.60470018704254 0.5 L 67.60470018704254 -0.5 L 25 -0.5 Z M 132.13985643704254 0.5 L 174.74455662408508 0.5 L 174.74455662408508 3.5 L 181.74455662408508 0 L 174.74455662408508 -3.5 L 174.74455662408508 -0.5 L 132.13985643704254 -0.5 Z"/><text text-anchor="middle" pointer-events="none" font-size="8px" fill="#000000" x="99.87227831204254" y="3" font-family="Helvetica Neue, Helvetica, Arial, sans-serif">OPERATED_BY</text></g><g class="relationship" transform="translate(320.18629335665577 -295.1171720143046) rotate(530.8600756655787)"><path class="b-outline" fill="#A5ABB6" stroke="none" d="M 25 0.5 L 31.293314281966367 0.5 L 31.293314281966367 -0.5 L 25 -0.5 Z M 88.56284553196636 0.5 L 94.85615981393273 0.5 L 94.85615981393273 3.5 L 101.85615981393273 0 L 94.85615981393273 -3.5 L 94.85615981393273 -0.5 L 88.56284553196636 -0.5 Z"/><text text-anchor="middle" pointer-events="none" font-size="8px" fill="#000000" x="59.92807990696637" y="3" transform="rotate(180 59.92807990696637 0)" font-family="Helvetica Neue, Helvetica, Arial, sans-serif">LOCATED_AT</text></g><g class="relationship" transform="translate(320.18629335665577 -295.1171720143046) rotate(496.8208197769542)"><path class="b-outline" fill="#A5ABB6" stroke="none" d="M 25 0.5 L 71.42228606218495 0.5 L 71.42228606218495 -0.5 L 25 -0.5 Z M 135.95744231218495 0.5 L 182.3797283743699 0.5 L 182.3797283743699 3.5 L 189.3797283743699 0 L 182.3797283743699 -3.5 L 182.3797283743699 -0.5 L 135.95744231218495 -0.5 Z"/><text text-anchor="middle" pointer-events="none" font-size="8px" fill="#000000" x="103.68986418718495" y="3" transform="rotate(180 103.68986418718495 0)" font-family="Helvetica Neue, Helvetica, Arial, sans-serif">OPERATED_BY</text></g><g class="relationship" transform="translate(245.8800935182829 -369.6507149829166) rotate(478.27989617469797)"><path class="b-outline" fill="#A5ABB6" stroke="none" d="M 25 0.5 L 27.55145878055592 0.5 L 27.55145878055592 -0.5 L 25 -0.5 Z M 72.96552128055592 0.5 L 75.51698006111184 0.5 L 75.51698006111184 3.5 L 82.51698006111184 0 L 75.51698006111184 -3.5 L 75.51698006111184 -0.5 L 72.96552128055592 -0.5 Z"/><text text-anchor="middle" pointer-events="none" font-size="8px" fill="#000000" x="50.25849003055592" y="3" transform="rotate(180 50.25849003055592 0)" font-family="Helvetica Neue, Helvetica, Arial, sans-serif">LOCATE…</text></g><g class="relationship" transform="translate(245.8800935182829 -369.6507149829166) rotate(422.909925401693)"><path class="b-outline" fill="#A5ABB6" stroke="none" d="M 25 0.5 L 61.08106455980014 0.5 L 61.08106455980014 -0.5 L 25 -0.5 Z M 125.61622080980014 0.5 L 161.69728536960028 0.5 L 161.69728536960028 3.5 L 168.69728536960028 0 L 161.69728536960028 -3.5 L 161.69728536960028 -0.5 L 125.61622080980014 -0.5 Z"/><text text-anchor="middle" pointer-events="none" font-size="8px" fill="#000000" x="93.34864268480014" y="3" font-family="Helvetica Neue, Helvetica, Arial, sans-serif">OPERATED_BY</text></g><g class="relationship" transform="translate(176.9350103519996 -441.75723514181897) rotate(443.8385356127747)"><path class="b-outline" fill="#A5ABB6" stroke="none" d="M 25 0.5 L 51.74510959014458 0.5 L 51.74510959014458 -0.5 L 25 -0.5 Z M 109.01464084014458 0.5 L 135.75975043028916 0.5 L 135.75975043028916 3.5 L 142.75975043028916 0 L 135.75975043028916 -3.5 L 135.75975043028916 -0.5 L 109.01464084014458 -0.5 Z"/><text text-anchor="middle" pointer-events="none" font-size="8px" fill="#000000" x="80.37987521514458" y="3" font-family="Helvetica Neue, Helvetica, Arial, sans-serif">LOCATED_AT</text></g><g class="relationship" transform="translate(176.9350103519996 -441.75723514181897) rotate(374.3967701807853)"><path class="b-outline" fill="#A5ABB6" stroke="none" d="M 25 0.5 L 48.21086423080254 0.5 L 48.21086423080254 -0.5 L 25 -0.5 Z M 112.74602048080254 0.5 L 135.95688471160508 0.5 L 135.95688471160508 3.5 L 142.95688471160508 0 L 135.95688471160508 -3.5 L 135.95688471160508 -0.5 L 112.74602048080254 -0.5 Z"/><text text-anchor="middle" pointer-events="none" font-size="8px" fill="#000000" x="80.47844235580254" y="3" font-family="Helvetica Neue, Helvetica, Arial, sans-serif">OPERATED_BY</text></g><g class="relationship" transform="translate(-138.37535157217195 -219.45495102956227) rotate(411.71196804800746)"><path class="b-outline" fill="#A5ABB6" stroke="none" d="M 25 0.5 L 111.04005091197405 0.5 L 111.04005091197405 -0.5 L 25 -0.5 Z M 159.12598841197405 0.5 L 245.1660393239481 0.5 L 245.1660393239481 3.5 L 252.1660393239481 0 L 245.1660393239481 -3.5 L 245.1660393239481 -0.5 L 159.12598841197405 -0.5 Z"/><text text-anchor="middle" pointer-events="none" font-size="8px" fill="#000000" x="135.08301966197405" y="3" font-family="Helvetica Neue, Helvetica, Arial, sans-serif">SHOPS_AT</text></g><g class="relationship" transform="translate(-138.37535157217195 -219.45495102956227) rotate(218.60907945255838)"><path class="b-outline" fill="#A5ABB6" stroke="none" d="M 25 0.5 L 26.580781188133656 0.5 L 26.580781188133656 -0.5 L 25 -0.5 Z M 115.42453118813366 0.5 L 117.00531237626731 0.5 L 117.00531237626731 3.5 L 124.00531237626731 0 L 117.00531237626731 -3.5 L 117.00531237626731 -0.5 L 115.42453118813366 -0.5 Z"/><text text-anchor="middle" pointer-events="none" font-size="8px" fill="#000000" x="71.00265618813366" y="3" transform="rotate(180 71.00265618813366 0)" font-family="Helvetica Neue, Helvetica, Arial, sans-serif">HAS_LOYALTY_CARD</text></g><g class="relationship" transform="translate(-138.37535157217195 -219.45495102956227) rotate(528.8111346122583)"><path class="b-outline" fill="#A5ABB6" stroke="none" d="M 25 0.5 L 27.240922559033606 0.5 L 27.240922559033606 -0.5 L 25 -0.5 Z M 116.0846725590336 0.5 L 118.32559511806721 0.5 L 118.32559511806721 3.5 L 125.32559511806721 0 L 118.32559511806721 -3.5 L 118.32559511806721 -0.5 L 116.0846725590336 -0.5 Z"/><text text-anchor="middle" pointer-events="none" font-size="8px" fill="#000000" x="71.6627975590336" y="3" transform="rotate(180 71.6627975590336 0)" font-family="Helvetica Neue, Helvetica, Arial, sans-serif">HAS_LOYALTY_CARD</text></g><g class="relationship" transform="translate(11.781153807589432 -135.89043867893304) rotate(440.8504418760375)"><path class="b-outline" fill="#A5ABB6" stroke="none" d="M 25 0.5 L 40.312745734366985 0.5 L 40.312745734366985 -0.5 L 25 -0.5 Z M 88.39868323436698 0.5 L 103.71142896873397 0.5 L 103.71142896873397 3.5 L 110.71142896873397 0 L 103.71142896873397 -3.5 L 103.71142896873397 -0.5 L 88.39868323436698 -0.5 Z"/><text text-anchor="middle" pointer-events="none" font-size="8px" fill="#000000" x="64.35571448436698" y="3" font-family="Helvetica Neue, Helvetica, Arial, sans-serif">SHOPS_AT</text></g><g class="relationship" transform="translate(-77.77846885454235 281.2825225145573) rotate(370.95989981500793)"><path class="b-outline" fill="#A5ABB6" stroke="none" d="M 25 0.5 L 49.08302607025206 0.5 L 49.08302607025206 -0.5 L 25 -0.5 Z M 97.16896357025206 0.5 L 121.25198964050412 0.5 L 121.25198964050412 3.5 L 128.25198964050412 0 L 121.25198964050412 -3.5 L 121.25198964050412 -0.5 L 97.16896357025206 -0.5 Z"/><text text-anchor="middle" pointer-events="none" font-size="8px" fill="#000000" x="73.12599482025206" y="3" font-family="Helvetica Neue, Helvetica, Arial, sans-serif">SHOPS_AT</text></g><g class="relationship" transform="translate(-67.57348845454202 380.34663293454565) rotate(333.4998053150032)"><path class="b-outline" fill="#A5ABB6" stroke="none" d="M 25 0.5 L 50.81585348608074 0.5 L 50.81585348608074 -0.5 L 25 -0.5 Z M 98.90179098608074 0.5 L 124.71764447216148 0.5 L 124.71764447216148 3.5 L 131.71764447216148 0 L 124.71764447216148 -3.5 L 124.71764447216148 -0.5 L 98.90179098608074 -0.5 Z"/><text text-anchor="middle" pointer-events="none" font-size="8px" fill="#000000" x="74.85882223608074" y="3" font-family="Helvetica Neue, Helvetica, Arial, sans-serif">SHOPS_AT</text></g><g class="relationship" transform="translate(6.123916367969943 447.4284857388866) rotate(295.90885619473715)"><path class="b-outline" fill="#A5ABB6" stroke="none" d="M 25 0.5 L 48.616500082955326 0.5 L 48.616500082955326 -0.5 L 25 -0.5 Z M 96.70243758295533 0.5 L 120.31893766591065 0.5 L 120.31893766591065 3.5 L 127.31893766591065 0 L 120.31893766591065 -3.5 L 120.31893766591065 -0.5 L 96.70243758295533 -0.5 Z"/><text text-anchor="middle" pointer-events="none" font-size="8px" fill="#000000" x="72.65946883295533" y="3" font-family="Helvetica Neue, Helvetica, Arial, sans-serif">SHOPS_AT</text></g><g class="relationship" transform="translate(12.742717436981797 -281.3038029896961) rotate(361.992065131295)"><path class="b-outline" fill="#A5ABB6" stroke="none" d="M 25 0.5 L 63.61115168515988 0.5 L 63.61115168515988 -0.5 L 25 -0.5 Z M 111.69708918515988 0.5 L 150.30824087031976 0.5 L 150.30824087031976 3.5 L 157.30824087031976 0 L 150.30824087031976 -3.5 L 150.30824087031976 -0.5 L 111.69708918515988 -0.5 Z"/><text text-anchor="middle" pointer-events="none" font-size="8px" fill="#000000" x="87.65412043515988" y="3" font-family="Helvetica Neue, Helvetica, Arial, sans-serif">SHOPS_AT</text></g><g class="relationship" transform="translate(12.742717436981797 -281.3038029896961) rotate(484.49922947615096)"><path class="b-outline" fill="#A5ABB6" stroke="none" d="M 25 0.5 L 40.546658134251246 0.5 L 40.546658134251246 -0.5 L 25 -0.5 Z M 129.39040813425123 0.5 L 144.9370662685025 0.5 L 144.9370662685025 3.5 L 151.9370662685025 0 L 144.9370662685025 -3.5 L 144.9370662685025 -0.5 L 129.39040813425123 -0.5 Z"/><text text-anchor="middle" pointer-events="none" font-size="8px" fill="#000000" x="84.96853313425125" y="3" transform="rotate(180 84.96853313425125 0)" font-family="Helvetica Neue, Helvetica, Arial, sans-serif">HAS_LOYALTY_CARD</text></g><g class="relationship" transform="translate(33.360909588167424 -1.9057153214310485) rotate(505.80450606267203)"><path class="b-outline" fill="#A5ABB6" stroke="none" d="M 25 0.5 L 49.099205270342736 0.5 L 49.099205270342736 -0.5 L 25 -0.5 Z M 106.36873652034274 0.5 L 130.46794179068547 0.5 L 130.46794179068547 3.5 L 137.46794179068547 0 L 130.46794179068547 -3.5 L 130.46794179068547 -0.5 L 106.36873652034274 -0.5 Z"/><text text-anchor="middle" pointer-events="none" font-size="8px" fill="#000000" x="77.73397089534274" y="3" transform="rotate(180 77.73397089534274 0)" font-family="Helvetica Neue, Helvetica, Arial, sans-serif">LOCATED_AT</text></g><g class="relationship" transform="translate(72.67827904732901 310.41908613427586) rotate(437.31950944163145)"><path class="b-outline" fill="#A5ABB6" stroke="none" d="M 25 0.5 L 42.59042760855101 0.5 L 42.59042760855101 -0.5 L 25 -0.5 Z M 99.85995885855101 0.5 L 117.45038646710202 0.5 L 117.45038646710202 3.5 L 124.45038646710202 0 L 117.45038646710202 -3.5 L 117.45038646710202 -0.5 L 99.85995885855101 -0.5 Z"/><text text-anchor="middle" pointer-events="none" font-size="8px" fill="#000000" x="71.22519323355101" y="3" font-family="Helvetica Neue, Helvetica, Arial, sans-serif">LOCATED_AT</text></g><g class="relationship" transform="translate(194.94078044080405 -274.9665696118139) rotate(509.8284512869278)"><path class="b-outline" fill="#A5ABB6" stroke="none" d="M 25 0.5 L 34.3565703620953 0.5 L 34.3565703620953 -0.5 L 25 -0.5 Z M 91.6261016120953 0.5 L 100.9826719741906 0.5 L 100.9826719741906 3.5 L 107.9826719741906 0 L 100.9826719741906 -3.5 L 100.9826719741906 -0.5 L 91.6261016120953 -0.5 Z"/><text text-anchor="middle" pointer-events="none" font-size="8px" fill="#000000" x="62.9913359870953" y="3" transform="rotate(180 62.9913359870953 0)" font-family="Helvetica Neue, Helvetica, Arial, sans-serif">LOCATED_AT</text></g></g><g class="layer nodes"><g class="node" aria-label="graph-node1" transform="translate(-128.30942724372753,-5.723263053362827)"><circle class="b-outline" cx="0" cy="0" r="25" fill="#F16667" stroke="#eb2728" stroke-width="2px"/><text class="caption" text-anchor="middle" pointer-events="none" x="0" y="5" font-size="10px" fill="#FFFFFF" font-family="Helvetica Neue, Helvetica, Arial, sans-serif"> Marie</text></g><g class="node" aria-label="graph-node44" transform="translate(33.360909588167424,-1.9057153214310485)"><circle class="b-outline" cx="0" cy="0" r="25" fill="#8DCC93" stroke="#5db665" stroke-width="2px"/><text class="caption" text-anchor="middle" pointer-events="none" x="0" y="-5" font-size="10px" fill="#2A2C34" font-family="Helvetica Neue, Helvetica, Arial, sans-serif"> Albert</text><text class="caption" text-anchor="middle" pointer-events="none" x="0" y="5" font-size="10px" fill="#2A2C34" font-family="Helvetica Neue, Helvetica, Arial, sans-serif"> Liberec,</text><text class="caption" text-anchor="middle" pointer-events="none" x="0" y="15" font-size="10px" fill="#2A2C34" font-family="Helvetica Neue, Helvetica, Arial, sans-serif"> Žiž</text></g><g class="node" aria-label="graph-node2" transform="translate(234.66741126891137,288.0229711433969)"><circle class="b-outline" cx="0" cy="0" r="25" fill="#F16667" stroke="#eb2728" stroke-width="2px"/><text class="caption" text-anchor="middle" pointer-events="none" x="0" y="5" font-size="10px" fill="#FFFFFF" font-family="Helvetica Neue, Helvetica, Arial, sans-serif"> Janko</text></g><g class="node" aria-label="graph-node46" transform="translate(72.67827904732901,310.41908613427586)"><circle class="b-outline" cx="0" cy="0" r="25" fill="#8DCC93" stroke="#5db665" stroke-width="2px"/><text class="caption" text-anchor="middle" pointer-events="none" x="0" y="0" font-size="10px" fill="#2A2C34" font-family="Helvetica Neue, Helvetica, Arial, sans-serif"> Albert</text><text class="caption" text-anchor="middle" pointer-events="none" x="0" y="10" font-size="10px" fill="#2A2C34" font-family="Helvetica Neue, Helvetica, Arial, sans-serif"> Olomo…</text></g><g class="node" aria-label="graph-node3" transform="translate(230.55435625714063,-74.94748308044657)"><circle class="b-outline" cx="0" cy="0" r="25" fill="#F16667" stroke="#eb2728" stroke-width="2px"/><text class="caption" text-anchor="middle" pointer-events="none" x="0" y="5" font-size="10px" fill="#FFFFFF" font-family="Helvetica Neue, Helvetica, Arial, sans-serif"> Peter</text></g><g class="node" aria-label="graph-node48" transform="translate(194.94078044080405,-274.9665696118139)"><circle class="b-outline" cx="0" cy="0" r="25" fill="#8DCC93" stroke="#5db665" stroke-width="2px"/><text class="caption" text-anchor="middle" pointer-events="none" x="0" y="0" font-size="10px" fill="#2A2C34" font-family="Helvetica Neue, Helvetica, Arial, sans-serif"> Albert</text><text class="caption" text-anchor="middle" pointer-events="none" x="0" y="10" font-size="10px" fill="#2A2C34" font-family="Helvetica Neue, Helvetica, Arial, sans-serif"> Brno</text></g><g class="node" aria-label="graph-node4" transform="translate(163.8568811526058,-148.42094568995478)"><circle class="b-outline" cx="0" cy="0" r="25" fill="#F16667" stroke="#eb2728" stroke-width="2px"/><text class="caption" text-anchor="middle" pointer-events="none" x="0" y="5" font-size="10px" fill="#FFFFFF" font-family="Helvetica Neue, Helvetica, Arial, sans-serif"> Anna</text></g><g class="node" aria-label="graph-node5" transform="translate(334.08803356626595,-197.20362839678785)"><circle class="b-outline" cx="0" cy="0" r="25" fill="#F16667" stroke="#eb2728" stroke-width="2px"/><text class="caption" text-anchor="middle" pointer-events="none" x="0" y="5" font-size="10px" fill="#FFFFFF" font-family="Helvetica Neue, Helvetica, Arial, sans-serif"> Honza</text></g><g class="node" aria-label="graph-node6" transform="translate(339.6175749903268,-399.99722694349714)"><circle class="b-outline" cx="0" cy="0" r="25" fill="#F16667" stroke="#eb2728" stroke-width="2px"/><text class="caption" text-anchor="middle" pointer-events="none" x="0" y="5" font-size="10px" fill="#FFFFFF" font-family="Helvetica Neue, Helvetica, Arial, sans-serif"> Kira</text></g><g class="node" aria-label="graph-node8" transform="translate(-13.652456931352226,136.43986268918601)"><circle class="b-outline" cx="0" cy="0" r="25" fill="#C990C0" stroke="#b261a5" stroke-width="2px"/><text class="caption" text-anchor="middle" pointer-events="none" x="0" y="5" font-size="10px" fill="#FFFFFF" font-family="Helvetica Neue, Helvetica, Arial, sans-serif"> </text></g><g class="node" aria-label="graph-node10" transform="translate(104.73114528702182,193.24555511965067)"><circle class="b-outline" cx="0" cy="0" r="25" fill="#C990C0" stroke="#b261a5" stroke-width="2px"/><text class="caption" text-anchor="middle" pointer-events="none" x="0" y="5" font-size="10px" fill="#FFFFFF" font-family="Helvetica Neue, Helvetica, Arial, sans-serif"> </text></g><g class="node" aria-label="graph-node12" transform="translate(208.74006586188437,118.10480017252787)"><circle class="b-outline" cx="0" cy="0" r="25" fill="#C990C0" stroke="#b261a5" stroke-width="2px"/><text class="caption" text-anchor="middle" pointer-events="none" x="0" y="5" font-size="10px" fill="#FFFFFF" font-family="Helvetica Neue, Helvetica, Arial, sans-serif"> </text></g><g class="node" aria-label="graph-node14" transform="translate(112.71525794851607,94.92676041602888)"><circle class="b-outline" cx="0" cy="0" r="25" fill="#C990C0" stroke="#b261a5" stroke-width="2px"/><text class="caption" text-anchor="middle" pointer-events="none" x="0" y="5" font-size="10px" fill="#FFFFFF" font-family="Helvetica Neue, Helvetica, Arial, sans-serif"> </text></g><g class="node" aria-label="graph-node16" transform="translate(320.18629335665577,-295.1171720143046)"><circle class="b-outline" cx="0" cy="0" r="25" fill="#C990C0" stroke="#b261a5" stroke-width="2px"/><text class="caption" text-anchor="middle" pointer-events="none" x="0" y="5" font-size="10px" fill="#FFFFFF" font-family="Helvetica Neue, Helvetica, Arial, sans-serif"> </text></g><g class="node" aria-label="graph-node18" transform="translate(245.8800935182829,-369.6507149829166)"><circle class="b-outline" cx="0" cy="0" r="25" fill="#C990C0" stroke="#b261a5" stroke-width="2px"/><text class="caption" text-anchor="middle" pointer-events="none" x="0" y="5" font-size="10px" fill="#FFFFFF" font-family="Helvetica Neue, Helvetica, Arial, sans-serif"> </text></g><g class="node" aria-label="graph-node20" transform="translate(176.9350103519996,-441.75723514181897)"><circle class="b-outline" cx="0" cy="0" r="25" fill="#C990C0" stroke="#b261a5" stroke-width="2px"/><text class="caption" text-anchor="middle" pointer-events="none" x="0" y="5" font-size="10px" fill="#FFFFFF" font-family="Helvetica Neue, Helvetica, Arial, sans-serif"> </text></g><g class="node" aria-label="graph-node21" transform="translate(-138.37535157217195,-219.45495102956227)"><circle class="b-outline" cx="0" cy="0" r="25" fill="#D9C8AE" stroke="#c0a378" stroke-width="2px"/><text class="caption" text-anchor="middle" pointer-events="none" x="0" y="5" font-size="10px" fill="#2A2C34" font-family="Helvetica Neue, Helvetica, Arial, sans-serif"> Velky</text></g><g class="node" aria-label="graph-node38" transform="translate(-254.81132098245513,-312.43477757186446)"><circle class="b-outline" cx="0" cy="0" r="25" fill="#ECB5C9" stroke="#da7298" stroke-width="2px"/><text class="caption" text-anchor="middle" pointer-events="none" x="0" y="5" font-size="10px" fill="#2A2C34" font-family="Helvetica Neue, Helvetica, Arial, sans-serif"> 1</text></g><g class="node" aria-label="graph-node39" transform="translate(-285.8436905883884,-190.2852143938071)"><circle class="b-outline" cx="0" cy="0" r="25" fill="#ECB5C9" stroke="#da7298" stroke-width="2px"/><text class="caption" text-anchor="middle" pointer-events="none" x="0" y="5" font-size="10px" fill="#2A2C34" font-family="Helvetica Neue, Helvetica, Arial, sans-serif"> 2</text></g><g class="node" aria-label="graph-node22" transform="translate(11.781153807589432,-135.89043867893304)"><circle class="b-outline" cx="0" cy="0" r="25" fill="#D9C8AE" stroke="#c0a378" stroke-width="2px"/><text class="caption" text-anchor="middle" pointer-events="none" x="0" y="5" font-size="10px" fill="#2A2C34" font-family="Helvetica Neue, Helvetica, Arial, sans-serif"> Mrkvicko…</text></g><g class="node" aria-label="graph-node23" transform="translate(-77.77846885454235,281.2825225145573)"><circle class="b-outline" cx="0" cy="0" r="25" fill="#D9C8AE" stroke="#c0a378" stroke-width="2px"/><text class="caption" text-anchor="middle" pointer-events="none" x="0" y="5" font-size="10px" fill="#2A2C34" font-family="Helvetica Neue, Helvetica, Arial, sans-serif"> Cibulkova</text></g><g class="node" aria-label="graph-node24" transform="translate(-67.57348845454202,380.34663293454565)"><circle class="b-outline" cx="0" cy="0" r="25" fill="#D9C8AE" stroke="#c0a378" stroke-width="2px"/><text class="caption" text-anchor="middle" pointer-events="none" x="0" y="5" font-size="10px" fill="#2A2C34" font-family="Helvetica Neue, Helvetica, Arial, sans-serif"> Mrkvicko…</text></g><g class="node" aria-label="graph-node25" transform="translate(6.123916367969943,447.4284857388866)"><circle class="b-outline" cx="0" cy="0" r="25" fill="#D9C8AE" stroke="#c0a378" stroke-width="2px"/><text class="caption" text-anchor="middle" pointer-events="none" x="0" y="5" font-size="10px" fill="#2A2C34" font-family="Helvetica Neue, Helvetica, Arial, sans-serif"> Nebe</text></g><g class="node" aria-label="graph-node26" transform="translate(12.742717436981797,-281.3038029896961)"><circle class="b-outline" cx="0" cy="0" r="25" fill="#D9C8AE" stroke="#c0a378" stroke-width="2px"/><text class="caption" text-anchor="middle" pointer-events="none" x="0" y="5" font-size="10px" fill="#2A2C34" font-family="Helvetica Neue, Helvetica, Arial, sans-serif"> Mala</text></g><g class="node" aria-label="graph-node40" transform="translate(-87.47357943885808,-135.48398520007615)"><circle class="b-outline" cx="0" cy="0" r="25" fill="#ECB5C9" stroke="#da7298" stroke-width="2px"/><text class="caption" text-anchor="middle" pointer-events="none" x="0" y="5" font-size="10px" fill="#2A2C34" font-family="Helvetica Neue, Helvetica, Arial, sans-serif"> 3</text></g><g class="node" aria-label="graph-node45" transform="translate(-101.0203505542795,89.40424597649945)"><circle class="b-outline" cx="0" cy="0" r="25" fill="#C990C0" stroke="#b261a5" stroke-width="2px"/><text class="caption" text-anchor="middle" pointer-events="none" x="0" y="5" font-size="10px" fill="#FFFFFF" font-family="Helvetica Neue, Helvetica, Arial, sans-serif"> </text></g><g class="node" aria-label="graph-node47" transform="translate(105.48473390349035,456.2242799201517)"><circle class="b-outline" cx="0" cy="0" r="25" fill="#C990C0" stroke="#b261a5" stroke-width="2px"/><text class="caption" text-anchor="middle" pointer-events="none" x="0" y="5" font-size="10px" fill="#FFFFFF" font-family="Helvetica Neue, Helvetica, Arial, sans-serif"> </text></g><g class="node" aria-label="graph-node0" transform="translate(79.97400519449842,-208.13071370451945)"><circle class="b-outline" cx="0" cy="0" r="25" fill="#C990C0" stroke="#b261a5" stroke-width="2px"/><text class="caption" text-anchor="middle" pointer-events="none" x="0" y="5" font-size="10px" fill="#FFFFFF" font-family="Helvetica Neue, Helvetica, Arial, sans-serif"> </text></g></g></svg>